<svg width="33" height="33" viewBox="0 0 33 33" fill="none" xmlns="http://www.w3.org/2000/svg">
<path fill-rule="evenodd" clip-rule="evenodd" d="M29.04 0H3.96C1.77295 0 0 1.77295 0 3.96V29.04C0 31.227 1.77295 33 3.96 33H29.04C31.227 33 33 31.227 33 29.04V3.96C33 1.77295 31.227 0 29.04 0ZM17.081 3.53057C16.695 3.34033 16.2349 3.21858 15.8138 3.36442C14.5417 3.59333 13.8721 5.21881 14.4326 6.33144C14.3989 6.36236 14.3652 6.39373 14.3315 6.42511C14.2978 6.4565 14.2641 6.48789 14.2303 6.51882C13.9848 6.18191 13.5479 6.27523 13.2007 6.35821C12.4655 6.60549 11.9944 7.28393 11.7478 7.98738C11.4413 8.81359 11.4681 9.71254 11.5741 10.5737C11.389 10.6618 11.1908 10.6718 10.9924 10.6819C10.8246 10.6904 10.6566 10.6989 10.4962 10.7547C10.4713 11.4432 10.4269 12.1318 10.3069 12.8112C10.304 12.8317 10.3011 12.8524 10.2981 12.873C10.272 13.055 10.2452 13.2419 10.3124 13.4185C10.3668 13.4312 10.4211 13.4441 10.4754 13.457C10.7303 13.5176 10.9851 13.5782 11.2455 13.6124C11.0515 13.6484 10.8668 13.7195 10.6931 13.8118L10.7227 14.1154C10.7017 14.0906 10.6808 14.0658 10.66 14.041C10.6258 14.0004 10.5918 13.9598 10.5574 13.9198C10.4998 14.4148 10.5687 14.9008 10.6377 15.3875C10.6938 15.7831 10.75 16.1792 10.7384 16.581C10.3915 16.5076 10.345 16.833 10.307 17.1001C10.2994 17.153 10.2922 17.2036 10.283 17.2483C10.313 17.2758 10.3427 17.3035 10.3724 17.3313C10.3995 17.3566 10.4266 17.3819 10.4539 17.407C10.3994 17.5012 10.3541 17.5981 10.3181 17.6996C10.3419 17.7834 10.3501 17.8721 10.3582 17.9602C10.3751 18.1429 10.3918 18.323 10.5463 18.4519C10.5178 18.6308 10.4884 18.8097 10.4589 18.9885C10.363 19.5708 10.2671 20.1532 10.2064 20.7402C10.1922 20.85 10.2148 20.9595 10.2372 21.0685C10.2664 21.2105 10.2954 21.3515 10.2431 21.4915C10.2034 21.6199 10.1367 21.7356 10.0701 21.8514C9.99144 21.9879 9.91282 22.1244 9.87838 22.2818C9.60991 22.5471 9.4391 22.8846 9.26991 23.219C9.22891 23.3001 9.18801 23.3809 9.14583 23.4605C9.02352 23.6776 8.99819 23.9194 8.97283 24.1617C8.96009 24.2833 8.94734 24.4051 8.9223 24.5238C8.88014 24.597 8.83406 24.6698 8.78766 24.7431C8.61453 25.0165 8.43698 25.297 8.44201 25.6296C8.44148 25.6627 8.44008 25.6964 8.43867 25.7304C8.43043 25.9294 8.42176 26.1389 8.58425 26.2831C8.49111 26.7776 8.36198 27.2637 8.23285 27.7499C8.15082 28.0587 8.06878 28.3676 7.99598 28.6785C7.96642 28.9829 7.9461 29.3142 8.08834 29.5958C8.6241 29.7482 9.18089 29.7013 9.7292 29.6551C9.80185 29.649 9.87435 29.6429 9.94663 29.6373C9.9882 29.3668 9.99559 29.0908 9.86073 28.8453C9.6409 28.0638 9.8551 27.2145 10.244 26.5204C10.5857 26.4577 10.7022 26.1272 10.7835 25.8337C10.8658 25.5327 11.0005 25.2521 11.1351 24.9716C11.292 24.6447 11.4488 24.3181 11.5224 23.9599C11.5353 23.8707 11.5192 23.7808 11.5032 23.6912C11.4815 23.57 11.4599 23.4494 11.5104 23.3321C11.531 23.2845 11.5498 23.2348 11.5688 23.1847C11.6382 23.0015 11.7098 22.8126 11.8787 22.7018C12.0773 22.5734 12.1771 22.3545 12.262 22.1433C12.2973 22.0366 12.3862 21.9779 12.4757 21.9188C12.5505 21.8694 12.6257 21.8198 12.6703 21.7417C12.7651 21.5767 12.786 21.3914 12.807 21.2057C12.8265 21.0329 12.8461 20.8598 12.9252 20.7023C12.9818 20.5693 13.0311 20.4311 13.0804 20.2924C13.2181 19.9062 13.3568 19.5168 13.6586 19.2273C13.7631 19.1371 13.8078 19.0137 13.8525 18.8903C13.8906 18.7849 13.9287 18.6796 14.004 18.595C14.0284 18.6426 14.0518 18.6912 14.0753 18.7399C14.1621 18.9199 14.25 19.1021 14.3909 19.2466C14.5067 19.2962 14.6339 19.2991 14.7601 19.3019C14.8029 19.3029 14.8457 19.3038 14.8878 19.3066C15.2717 19.8679 15.6511 20.4322 16.0307 20.9967C16.0694 21.0543 16.108 21.1118 16.1467 21.1693C16.3231 21.4593 16.7231 21.5185 17.0196 21.3937C17.0485 21.4419 17.0827 21.488 17.1169 21.5343C17.1876 21.6298 17.2588 21.726 17.2856 21.8423C17.2772 21.9295 17.2676 22.0166 17.258 22.1038C17.2385 22.2823 17.2189 22.4609 17.2089 22.6407C17.0454 22.7949 16.9254 23.0071 16.9688 23.2388C17.0242 23.7151 17.0678 24.193 17.1046 24.6714C17.1248 24.7892 17.1597 24.9041 17.1945 25.0187C17.2565 25.223 17.3184 25.4268 17.2976 25.6461C17.3212 25.6659 17.3572 25.696 17.3926 25.7256C17.4251 25.7528 17.4571 25.7795 17.4786 25.7976C17.4652 26.0297 17.486 26.2624 17.5066 26.4947C17.5327 26.7872 17.5587 27.0791 17.5165 27.3686C17.3616 27.6694 17.3038 27.9999 17.246 28.3305C17.2156 28.5042 17.1853 28.678 17.1408 28.8474C17.363 29.106 17.6802 29.0714 17.9894 29.0376C18.104 29.0251 18.2175 29.0126 18.3247 29.0153C18.4963 29.0351 18.662 29.0864 18.8277 29.1376C19.0571 29.2085 19.2865 29.2794 19.5312 29.2666C19.6843 29.2642 19.8379 29.2665 19.9915 29.2687C20.3865 29.2743 20.7819 29.28 21.1716 29.2083C21.2076 29.0137 21.2214 28.815 21.1457 28.6278C20.8974 28.468 20.6287 28.3461 20.3469 28.2621C20.117 28.2048 19.9661 28.0253 19.8188 27.8501C19.7745 27.7973 19.7304 27.7449 19.6847 27.6964C19.6384 27.6362 19.5864 27.578 19.5342 27.5196C19.3823 27.3497 19.2281 27.1772 19.2035 26.9423C19.1612 26.5577 19.1737 26.1683 19.186 25.7822C19.1875 25.7362 19.189 25.6903 19.1903 25.6444C19.2128 25.5831 19.2437 25.5248 19.2745 25.4665C19.3364 25.3494 19.3982 25.2327 19.3908 25.0932C19.4395 24.8864 19.4025 24.6827 19.3657 24.4794C19.3298 24.2815 19.294 24.0839 19.3372 23.884C19.4787 22.9859 19.5905 22.0795 19.5618 21.1693C19.5138 21.101 19.4667 21.0337 19.4205 20.9663C19.406 20.8193 19.3906 20.6742 19.3751 20.529L19.3743 20.5215C19.3682 20.5188 19.362 20.5161 19.3558 20.5134C19.2422 20.4641 19.1197 20.4108 19.0953 20.2751C18.831 19.5381 18.5285 18.8153 18.1891 18.1097C17.8594 17.4867 17.4299 16.9217 16.9579 16.4002C16.905 16.2458 16.8752 16.0852 16.8454 15.9249C16.8278 15.8302 16.8102 15.7356 16.7879 15.6424C16.8341 15.5484 16.8811 15.455 16.9292 15.3618C16.9911 15.3704 17.0586 15.394 17.1275 15.4181C17.2946 15.4766 17.4703 15.538 17.5952 15.3969C17.7966 15.0895 17.9582 14.7444 17.9379 14.3678C17.9368 14.1086 17.9659 13.8505 17.9951 13.5926C18.0381 13.2123 18.081 12.8327 18.0265 12.4515C17.9757 12.1579 17.7393 11.9475 17.453 11.893C17.5103 11.6854 17.5656 11.4767 17.6007 11.2644C17.758 11.3453 17.9142 11.4314 18.0709 11.5178C18.6652 11.8454 19.266 12.1766 19.9524 12.2372C19.92 12.3997 20.2304 12.4634 19.9865 12.2603C20.3118 12.3085 20.5247 12.1171 20.7391 11.9245C20.8407 11.8332 20.9426 11.7416 21.057 11.6751C21.356 11.4625 21.4111 11.1188 21.4663 10.7747C21.4967 10.5852 21.5271 10.3955 21.5983 10.2277C21.7378 10.1815 21.88 10.1398 22.0213 10.0993C21.9962 9.94121 21.9576 9.78519 21.919 9.62925C21.8453 9.33183 21.7717 9.0347 21.7923 8.72405C21.8071 8.713 21.8221 8.70188 21.8371 8.69068C22.0788 8.51123 22.3472 8.3119 22.4445 8.02171C22.5423 7.97381 22.6411 7.92489 22.739 7.8732C23.109 7.86747 23.479 7.8689 23.8492 7.87032C24.1951 7.87166 24.5412 7.87299 24.8874 7.86849C25.0132 7.87492 25.0203 7.76167 25.027 7.65538C25.03 7.6077 25.033 7.56142 25.0465 7.52798C25.2275 7.64437 25.4527 7.65813 25.6579 7.6009C25.896 7.52268 26.1447 7.52823 26.3931 7.53378C26.505 7.53627 26.6168 7.53877 26.7275 7.53361C26.7766 7.53494 26.8269 7.53363 26.8775 7.53232C27.0656 7.52744 27.2578 7.52245 27.4092 7.65259C27.6984 7.60242 27.9928 7.60705 28.2865 7.61167L28.3116 7.61207C28.3137 7.55713 28.3156 7.50224 28.3175 7.44735C28.3198 7.38134 28.3221 7.31534 28.3247 7.24931L28.2996 7.24941C28.0733 7.25029 27.8471 7.25118 27.6218 7.2567C27.5565 7.23042 27.4905 7.20484 27.425 7.17947L27.4075 7.1727C27.3898 7.18575 27.3639 7.20462 27.3373 7.224C27.3058 7.24696 27.2734 7.27062 27.2523 7.28614C26.9124 7.31399 26.5694 7.30848 26.2268 7.30299C26.0471 7.3001 25.8675 7.29722 25.6886 7.29916C25.6902 7.25866 25.6963 7.217 25.7025 7.17523C25.7212 7.04963 25.74 6.92301 25.6339 6.82388C25.6178 6.84308 25.593 6.87211 25.5687 6.90052C25.5474 6.92553 25.5264 6.95006 25.5122 6.96695C25.4713 6.91711 25.3901 6.81751 25.3495 6.76767C25.3471 6.53493 25.3462 6.30226 25.3452 6.0696C25.3451 6.03643 25.3449 6.00325 25.3448 5.97007C25.2986 5.97099 25.2063 5.97376 25.1592 5.9757C25.1596 6.12047 25.1594 6.26544 25.1593 6.41044C25.1592 6.60372 25.159 6.79706 25.1601 6.99003C25.1356 6.99003 25.0987 6.9898 25.062 6.98957C25.0256 6.98934 24.9893 6.98911 24.9654 6.98911C24.9691 6.92532 24.9781 6.79785 24.9827 6.73435C23.9522 6.72406 22.922 6.72547 21.8918 6.72687C21.0641 6.728 20.2364 6.72913 19.4085 6.7242C19.4085 6.68174 19.4077 6.59682 19.4066 6.55426C19.2931 6.52666 19.1805 6.49805 19.0696 6.46667C19.0686 6.29313 19.065 6.11582 18.9773 5.96167C18.9228 6.12833 18.8842 6.2994 18.8455 6.4703C18.8303 6.53782 18.815 6.60532 18.7988 6.6725C18.5987 6.65856 18.4122 6.71763 18.226 6.7766C18.0177 6.84257 17.8097 6.90843 17.5835 6.87188C17.5768 6.79498 17.5684 6.71817 17.56 6.64132C17.5414 6.47189 17.5228 6.30233 17.5234 6.13151C17.5701 6.11587 17.6193 6.10242 17.6691 6.08879C17.8334 6.04387 18.0045 5.99707 18.1136 5.86392C18.3224 5.34988 18.1848 4.77021 17.9696 4.281C17.9756 4.26671 17.9843 4.24481 17.9931 4.22291C18.0019 4.20097 18.0107 4.17902 18.0167 4.1647C18.0075 4.14793 17.9945 4.12441 17.9807 4.09941C17.9595 4.06108 17.9364 4.01927 17.9224 3.99301C17.627 3.88196 17.3625 3.71173 17.0987 3.54194L17.081 3.53057ZM20.1624 8.54831C20.007 8.38401 20.152 8.28053 20.2998 8.19007C20.4107 8.18915 20.5224 8.1874 20.6333 8.18546C20.6952 8.33121 20.7303 8.48545 20.745 8.64329C20.7119 8.67661 20.6444 8.74492 20.6111 8.77907C20.4522 9.12318 20.2176 9.44827 19.9231 9.69002C19.8268 9.45385 19.7106 9.22629 19.5757 9.00983C19.5533 8.87672 19.684 8.81183 19.8044 8.75208C19.8529 8.72804 19.8996 8.70484 19.9341 8.67836C20.0107 8.63692 20.0867 8.59344 20.1624 8.54831Z" fill="white"/>
</svg>
