<svg width="33" height="32" viewBox="0 0 33 32" fill="none" xmlns="http://www.w3.org/2000/svg">
<path d="M32.1721 7.43142C32.0462 1.4757 32.0384 2.76307 32.161 0.906853C32.1683 0.796803 32.0852 0.701712 31.9752 0.694192C23.1068 0.0875825 22.7707 0.0176388 22.0835 0.0176388C9.98516 0.0166685 16.3368 -0.181033 0.188115 0.771575C0.0783887 0.778124 -0.005463 0.871922 0.000278044 0.981567C1.04102 20.9492 1.00302 17.6919 0.471367 30.9998C0.467566 31.0953 0.532012 31.1802 0.625162 31.2022C1.83377 31.4879 1.61957 31.3754 4.43891 31.3775C4.44352 31.3788 9.72237 30.8024 9.72714 30.8019C9.75204 30.806 17.0269 32 17.0522 32C17.0578 32 17.0633 31.9998 17.0689 31.9993C25.5948 31.2848 23.151 31.4574 28.6515 31.1526L31.8812 31.8059C32.0069 31.8311 32.1221 31.734 32.1208 31.6077C32.0508 25.1052 32.1721 7.43142 32.1721 7.43142ZM19.0616 6.95742C19.0856 6.9516 19.12 6.94319 19.1628 6.93179L21.4617 6.41372C22.6392 6.11867 22.8132 6.04678 23.8209 5.57302H23.821C24.2862 5.73442 25.5619 6.44033 25.8853 6.84559C26.099 7.11389 26.0849 7.17356 26.0177 7.46086C26.0048 7.516 25.99 7.57948 25.9744 7.65443C25.9734 7.65937 25.9726 7.66446 25.9719 7.66947L25.4663 11.6255C24.9661 11.6439 24.9244 11.6056 24.786 11.4782C24.729 11.4255 24.6579 11.36 24.5326 11.276C23.7719 10.7654 21.2826 8.92353 20.4965 8.28951L18.9513 7.04799L18.9637 7.03594C18.9805 7.01928 18.9954 6.99688 19.0052 6.97545C19.013 6.96939 19.0436 6.96187 19.0616 6.95742ZM22.644 26.8756C22.5988 26.8304 3.32628 6.39917 3.31213 6.37095L4.99587 5.07929L28.5252 20.6594C28.3308 21.2166 28.2531 21.8561 28.1362 22.3871C27.7229 24.2625 27.1913 25.083 26.3601 26.8648C25.1703 26.9121 22.7259 26.903 22.644 26.8756ZM5.11231 21.3479C5.32893 20.8273 5.62674 19.9897 5.87708 19.5655C7.10777 20.3345 11.9154 25.165 12.3335 25.8172C12.1019 25.9032 11.1072 26.051 9.45448 26.7112C8.40734 27.1289 7.41859 27.5252 6.46356 27.2011C6.3683 27.169 6.1144 26.9535 5.73792 26.6286C5.05029 26.035 4.42759 25.6073 4.0655 25.3936C3.44789 25.029 3.54412 25.1059 5.11231 21.3479Z" fill="white"/>
<path d="M2.45946 21.3903C2.30858 13.6073 2.47709 17.8469 1.58278 0.68927L0.188115 0.771504C0.0783887 0.778054 -0.005463 0.871851 0.000278044 0.981497L0.742813 15.2279C0.890301 22.8379 0.93065 19.503 0.471367 30.9997C0.467566 31.0953 0.532012 31.1801 0.625162 31.2021C1.30721 31.3634 1.59071 31.3995 2.07053 31.3995C2.05549 31.3482 2.03891 31.9156 2.45946 21.3903Z" fill="white"/>
<path d="M13.334 26.2569C13.334 26.2569 14.1495 25.9762 13.4791 25.2404C10.7427 22.1883 9.07568 21.0826 7.49124 19.3443C6.82908 18.6275 5.87671 19.5653 5.87671 19.5653C12.0691 25.0697 10.8286 24.2729 11.9201 25.3269C12.065 25.4668 12.1793 25.5772 12.3331 25.817C12.3045 25.8276 12.1779 25.8596 12.0028 25.9038C9.42645 26.5539 9.03994 26.9953 7.88955 27.2418C8.96312 28.1171 10.8562 27.0492 12.2058 26.5845C12.5286 26.4735 12.9561 26.3557 13.334 26.2569Z" fill="white"/>
<path d="M29.6964 19.0388C29.6963 19.0387 7.20162 4.69321 7.20162 4.69321C6.44801 4.21266 5.63529 4.44392 4.99561 5.07915L28.525 20.6593C28.3305 21.2165 28.2529 21.8559 28.136 22.3869C27.7226 24.2623 27.191 25.0829 26.3598 26.8647C26.3598 26.8647 28.4908 27.2743 29.1405 25.8322C30.6649 22.5878 30.3129 21.9758 30.6762 20.9514C30.6331 20.3736 30.7134 19.6874 29.6964 19.0388Z" fill="white"/>
<path d="M25.9751 7.65419C25.974 7.65912 25.9732 7.66422 25.9725 7.66923L25.4669 11.6252C25.4669 11.6252 27.4671 12.8606 27.7184 10.8294C27.7185 10.8287 27.7186 10.8281 27.7186 10.8274L28.1324 7.48317C28.1331 7.47808 28.1339 7.4729 28.1351 7.46781C28.1508 7.39115 28.166 7.3263 28.1792 7.26994C28.2479 6.97626 28.2623 6.91521 28.0438 6.64094C27.8141 6.35308 26.7851 5.59332 26.0185 5.10064C25.2949 4.61548 24.4355 5.19888 24.4355 5.19888C24.221 5.36327 24.0293 5.50688 23.8215 5.57278C24.347 5.857 25.6786 6.58563 25.8858 6.84535C26.0995 7.11364 26.0854 7.17332 26.0183 7.46061C26.0053 7.51584 25.9905 7.57931 25.9751 7.65419Z" fill="white"/>
</svg>
