<svg width="232" height="77" viewBox="0 0 232 77" fill="none" xmlns="http://www.w3.org/2000/svg">
<path d="M6.12489 71.5846H13.6527C15.1739 71.5846 16.305 71.507 17.0851 71.3906C17.9432 71.2354 18.4502 70.8086 18.6843 69.9938C18.8403 69.4118 18.9183 68.5195 18.9183 67.3167C18.9183 65.9975 18.8403 65.0275 18.6453 64.4455C18.4502 63.6696 17.9432 63.204 17.2021 63.0488C16.617 62.8936 15.4079 62.8548 13.5747 62.8548H6.12489L6.12489 71.5846ZM0.820313 76.0465L0.820312 58.4317H13.6137C16.383 58.4317 18.1772 58.4705 18.9963 58.5869C20.5565 58.7809 21.7266 59.1689 22.4677 59.8284C23.2478 60.5268 23.7938 61.6132 24.0279 63.1652C24.1449 63.9024 24.2229 65.1827 24.2229 67.0063C24.2229 69.3342 24.1059 70.9638 23.9108 71.8562C23.6378 73.0978 23.1698 73.9901 22.5067 74.6109C22.0776 74.9989 21.5316 75.3093 20.9075 75.5421C20.2834 75.7361 19.4254 75.8913 18.3332 76.0077C17.4751 76.0853 15.915 76.1241 13.6137 76.1241H0.820313V76.0465Z" fill="white"/>
<path d="M31.7895 67.2006H39.3563C40.4874 67.2006 41.1505 67.1618 41.3845 67.1618C42.1646 67.123 42.6326 66.8903 42.8277 66.4635C42.9837 66.1531 43.0227 65.6875 43.0227 64.9891C43.0227 64.3683 42.9447 63.9415 42.8277 63.6311C42.6326 63.2043 42.2036 62.9715 41.5015 62.8939C41.2675 62.8939 40.5264 62.8551 39.3173 62.8551H31.7505V67.2006H31.7895ZM26.3679 76.0857L26.3679 58.4708H39.3953C42.4766 58.4708 44.3098 58.5096 44.8559 58.5484C45.48 58.626 46.065 58.7812 46.5721 59.0916C47.0791 59.402 47.5082 59.79 47.7812 60.2556C48.0932 60.76 48.2493 61.3032 48.3273 61.8464C48.4053 62.5059 48.4443 63.2819 48.4443 64.1743C48.4443 65.6099 48.3273 66.6187 48.1322 67.2006C47.8202 68.0542 47.2351 68.6362 46.4161 68.9466C46.143 69.063 45.714 69.1406 45.1289 69.257C46.26 69.3346 47.0791 69.6838 47.5862 70.227C47.8202 70.4598 47.9762 70.7702 48.0542 71.0806C48.1322 71.391 48.2103 71.8565 48.2493 72.4773V74.4173V76.0469H42.9057V75.1157C42.9057 74.0681 42.8667 73.3309 42.7497 72.8653C42.5936 72.2057 42.2426 71.8177 41.6965 71.7014C41.3065 71.6238 40.5264 71.585 39.3563 71.585H31.7505L31.7505 76.0469H26.3289L26.3679 76.0857Z" fill="white"/>
<path d="M69.1947 69.0238H55.6212V71.8174H70.0528V76.0465H50.3167V58.4317H69.9358V62.5832H55.6212V65.1439H69.1947V69.0238Z" fill="white"/>
<path d="M87.5647 69.257L84.1323 62.5447H83.0402L79.6078 69.257H87.5257H87.5647ZM90.997 76.0857L89.4759 73.1369H77.7356L76.2144 76.0857H70.0518L79.4518 58.4708H87.8377L97.1207 76.0857H90.997Z" fill="white"/>
<path d="M122.672 76.0465L122.828 62.8548L121.931 62.8548L115.222 76.0465H110.775L104.067 62.8548H103.13L103.247 76.0465H97.9429V58.4317H107.733L112.999 69.8774L118.264 58.4317L128.015 58.4317V76.0465H122.672Z" fill="white"/>
<path d="M154.032 76.0465H148.337V69.6446H136.168V76.0465H130.512V58.4317H136.168V64.7559H148.337V58.4317L154.032 58.4317V76.0465Z" fill="white"/>
<path d="M172.362 69.257L168.929 62.5447H167.837L164.405 69.257H172.323H172.362ZM175.794 76.0857L174.273 73.1369H162.532L161.011 76.0857H154.849L164.249 58.4708H172.635L181.918 76.0857H175.794Z" fill="white"/>
<path d="M199.353 69.2568H204.774C204.813 70.1104 204.813 70.6923 204.813 71.0027C204.813 72.2831 204.618 73.2919 204.189 74.0679C203.76 74.8827 202.941 75.4258 201.771 75.7362C200.484 76.0854 198.222 76.2794 194.984 76.2794C191.435 76.2794 189.056 76.2406 187.846 76.1242C186.715 76.0466 185.818 75.8914 185.155 75.6586C184.492 75.4646 183.946 75.1543 183.517 74.7663C182.932 74.2231 182.581 73.5247 182.425 72.6323C182.269 71.7011 182.152 69.9552 182.152 67.3168C182.152 64.7949 182.23 63.0877 182.347 62.2341C182.542 60.9149 183.049 59.9838 183.907 59.363C184.531 58.8974 185.584 58.587 186.988 58.393C188.432 58.199 191.045 58.1214 194.828 58.1214C197.051 58.1214 198.651 58.1602 199.626 58.2766C201.069 58.4318 202.122 58.7034 202.785 59.0914C203.604 59.5958 204.111 60.333 204.345 61.3029C204.501 62.0013 204.579 62.7773 204.579 63.7085V64.7173H199.158C199.158 64.2905 199.119 63.9801 199.119 63.8249C199.041 63.2817 198.807 62.9713 198.417 62.8161C197.793 62.6221 196.115 62.5057 193.385 62.5057C191.513 62.5057 190.226 62.5445 189.524 62.6609C188.666 62.7773 188.12 63.2429 187.924 64.0577C187.768 64.7173 187.69 65.8036 187.69 67.2392C187.69 68.7524 187.768 69.8 187.924 70.3819C188.12 71.1191 188.705 71.5847 189.641 71.7011C190.382 71.7787 191.747 71.8563 193.658 71.8563C195.725 71.8563 197.13 71.8175 197.871 71.7399C198.573 71.6623 199.041 71.4295 199.236 71.0027C199.392 70.6535 199.47 70.0716 199.509 69.2568H199.353Z" fill="white"/>
<path d="M220.024 67.1231L231.179 76.0469H222.95L215.032 69.3346H212.067V76.0469H206.646V58.4321H212.067V64.8727H215.032L222.013 58.3157L230.282 58.3157L220.024 67.1231Z" fill="white"/>
<path d="M61.3574 6.36307C60.8113 7.10025 60.8113 7.02265 60.6553 6.63466L59.9532 4.8111C59.7972 4.42311 59.7582 4.34551 60.3823 3.60832L62.7616 0.659586C63.0736 0.271594 63.2296 0.0775984 63.3466 0L63.4636 0C63.5026 0.0387992 63.5416 0.116398 63.5416 0.193996L63.8927 2.09516C63.9707 2.48315 63.8537 2.75474 63.3856 3.49193L61.3574 6.36307Z" fill="white"/>
<path d="M63.4233 10.5928C63.0333 11.2912 63.0333 11.2136 62.7993 10.8644L61.8242 9.11843C61.6291 8.76924 61.5511 8.69164 62.0582 7.95445L63.8524 5.12211C64.2814 4.42372 64.4374 4.30733 64.5545 4.69532L65.1395 6.51888C65.2565 6.90687 65.2175 7.13967 64.8665 7.83805L63.4233 10.5928Z" fill="white"/>
<path d="M95.5999 35.8511C96.302 36.2779 96.185 36.2391 95.5999 36.0063L92.9086 34.8035C92.3625 34.5319 92.2455 34.4931 91.6215 34.0275L89.3202 32.1652C88.7741 31.6996 88.7351 31.622 89.2032 31.8936L91.5044 33.174C92.0115 33.4456 92.2455 33.6007 92.9086 34.0663L95.5609 35.8123L95.5999 35.8511Z" fill="white"/>
<path d="M88.7761 32.6311C89.3222 33.0966 89.2051 33.0578 88.6981 32.7863L86.2408 31.5059C85.7338 31.2343 85.6167 31.1955 85.1877 30.6911L83.5105 28.7123C83.0815 28.2079 83.0815 28.1303 83.5105 28.4019L85.5777 29.7599C86.0068 30.0315 86.2408 30.2255 86.7479 30.7299L88.8151 32.6311H88.7761Z" fill="white"/>
<path d="M82.5746 28.9835C82.9646 29.4879 82.8866 29.4491 82.4186 29.1775L80.1953 27.8195C79.7663 27.5479 79.6492 27.4704 79.3372 26.9272L78.2451 24.7932C77.9721 24.25 78.0111 24.1724 78.3621 24.4828L80.1953 25.9184C80.5854 26.2288 80.7414 26.4228 81.0924 26.9272L82.5746 28.9835Z" fill="white"/>
<path d="M77.5427 25.647C77.7768 26.1902 77.6987 26.1514 77.2697 25.841L75.3195 24.4054C74.9294 24.095 74.8124 24.0562 74.6954 23.4742L74.1884 21.1851C74.0713 20.6031 74.1104 20.5255 74.4224 20.8359L75.9826 22.3491C76.3336 22.6594 76.4506 22.8534 76.6456 23.4354L77.5427 25.6082V25.647Z" fill="white"/>
<path d="M73.1359 22.1547C73.2139 22.7367 73.1359 22.6591 72.7849 22.3487L71.0687 20.8355C70.7177 20.5252 70.6396 20.4476 70.6396 19.8268L70.7177 17.4212C70.7567 16.8004 70.7957 16.7228 71.0687 17.072L72.3948 18.6628C72.6679 18.9732 72.7459 19.206 72.8239 19.788L73.1359 22.1159V22.1547Z" fill="white"/>
<path d="M69.3124 18.5081C69.2344 19.1289 69.1954 19.0513 68.8834 18.7409L67.4012 17.1501C67.1282 16.8009 67.0112 16.7621 67.2062 16.1025L67.8693 13.5418C68.0253 12.8822 68.1423 12.8046 68.3373 13.1538L69.4295 14.8221C69.6635 15.1713 69.7025 15.4041 69.6245 16.0249L69.3514 18.5081H69.3124Z" fill="white"/>
<path d="M66.0743 14.6277C65.8403 15.2873 65.8013 15.2097 65.5282 14.8605L64.3191 13.1921C64.0851 12.843 64.0071 12.7654 64.3191 12.067L65.5672 9.38982C65.8793 8.73024 65.9963 8.61384 66.1523 9.00183L66.9714 10.7478C67.1664 11.097 67.1274 11.3686 66.9324 12.0282L66.0743 14.6277Z" fill="white"/>
<path d="M41.8125 28.4012C40.9544 29.2548 40.8764 29.1772 40.1743 28.9444L36.8979 27.7804C36.2349 27.5476 36.0008 27.5088 37.0539 26.6165L41.0324 23.1633C42.0075 22.3098 42.4365 22.1158 42.9436 22.3874L45.5179 23.7065C46.0639 23.9781 45.9079 24.2497 45.1278 25.0645L41.8125 28.3624V28.4012Z" fill="white"/>
<path d="M49.6924 31.0781C49.0683 31.8541 48.9903 31.7765 48.2493 31.5437L44.8169 30.4573C44.1148 30.2245 43.8808 30.1857 44.6609 29.3709L47.5862 26.1894C48.2883 25.3746 48.6783 25.2194 49.2244 25.491L51.9937 26.7714C52.5787 27.043 52.5397 27.2758 51.9547 28.0517L49.6534 31.0781H49.6924Z" fill="white"/>
<path d="M117.6 46.1332C118.575 46.4824 118.38 46.4436 117.405 46.3272L112.685 45.6288C111.71 45.4736 111.476 45.4736 110.618 45.0856L107.342 43.5336C106.523 43.1457 106.523 43.0681 107.42 43.2233L111.671 44.038C112.568 44.1932 112.958 44.3484 113.894 44.6976L117.639 46.1332H117.6Z" fill="white"/>
<path d="M106.56 44.3872C107.34 44.7752 107.145 44.7364 106.209 44.5812L101.646 43.844C100.71 43.6888 100.476 43.65 99.8126 43.2232L97.3163 41.4773C96.6923 41.0117 96.7313 40.9341 97.5894 41.1281L101.607 42.0205C102.465 42.2145 102.816 42.3309 103.557 42.7576L106.56 44.3872Z" fill="white"/>
<path d="M95.9532 42.5243C96.5383 42.9898 96.3432 42.951 95.4462 42.7571L91.0777 41.9423C90.1806 41.7871 89.9466 41.7483 89.5175 41.2439L87.8013 39.3039C87.3723 38.7995 87.4893 38.7219 88.2694 38.9159L92.0918 39.8471C92.9109 40.0411 93.1839 40.1963 93.73 40.6619L95.9532 42.4855V42.5243Z" fill="white"/>
<path d="M85.8124 40.5462C86.1635 41.0506 86.0075 41.0118 85.1494 40.8178L80.9759 39.9642C80.1178 39.7702 79.8838 39.7702 79.6888 39.1882L78.8307 37.0154C78.6357 36.4723 78.7527 36.3559 79.4938 36.5886L83.1212 37.5974C83.9012 37.7914 84.0963 37.9854 84.4473 38.4898L85.8124 40.5074V40.5462Z" fill="white"/>
<path d="M76.0981 38.3729C76.2541 38.9549 76.0981 38.8773 75.24 38.7221L71.2616 37.7909C70.4425 37.5969 70.2085 37.5581 70.2475 36.9373L70.2865 34.5318C70.2865 33.911 70.4815 33.7946 71.1836 34.0274L74.577 35.1138C75.279 35.3466 75.435 35.5406 75.5911 36.1226L76.0981 38.3729Z" fill="white"/>
<path d="M66.8553 36.0833C66.7383 36.7041 66.6213 36.6653 65.8412 36.4713L62.0188 35.5014C61.2387 35.3074 61.0047 35.2686 61.2777 34.5702L62.2528 31.9318C62.4869 31.2722 62.7209 31.117 63.384 31.3886L66.5823 32.5138C67.2454 32.7466 67.3234 32.9794 67.2454 33.6002L66.8553 36.0833Z" fill="white"/>
<path d="M58.076 33.6788C57.7249 34.3772 57.6079 34.3384 56.8669 34.1056L53.2395 33.058C52.4984 32.8252 52.2643 32.8252 52.7714 32.0492L54.7216 29.1393C55.1897 28.4021 55.5017 28.2469 56.0868 28.5185L59.0901 29.7213C59.7142 29.9541 59.7142 30.1869 59.4021 30.8853L58.076 33.64V33.6788Z" fill="white"/>
<path d="M28.5901 40.4679C27.537 41.3603 27.42 41.3215 26.3669 41.1663L21.2963 40.5067C20.2432 40.3515 19.9312 40.3515 21.1793 39.4203L25.9768 35.6956C27.147 34.7644 27.732 34.5704 28.5901 34.7256L32.8026 35.618C33.6997 35.812 33.5437 36.0836 32.5686 36.9372L28.5901 40.4291V40.4679Z" fill="white"/>
<path d="M40.5663 42.059C39.8642 42.8738 39.7082 42.835 38.6161 42.6798L33.4675 42.059C32.4144 41.9426 32.0634 41.9038 32.9995 41.0502L36.5099 37.6747C37.368 36.8211 37.875 36.6271 38.7721 36.8211L43.1406 37.6747C44.0377 37.8299 43.9987 38.1015 43.3356 38.8775L40.6053 42.0202L40.5663 42.059Z" fill="white"/>
<path d="M132.147 50.75C133.278 51.0604 133.044 51.0216 131.796 50.944L125.867 50.556C124.658 50.4784 124.346 50.4784 123.371 50.1292L119.587 48.7324C118.651 48.3832 118.69 48.3056 119.782 48.422L125.165 48.9264C126.296 49.0428 126.764 49.1592 127.856 49.4696L132.147 50.7112V50.75Z" fill="white"/>
<path d="M118.261 49.7794C119.158 50.1286 118.924 50.1286 117.715 50.051L111.903 49.6242C110.694 49.5466 110.421 49.5078 109.641 49.1198L106.716 47.4903C105.975 47.0635 106.092 46.9859 107.145 47.1023L112.371 47.6843C113.464 47.8007 113.893 47.9171 114.751 48.305L118.222 49.7794H118.261Z" fill="white"/>
<path d="M104.612 48.6931C105.275 49.1199 105.08 49.0811 103.871 49.0035L98.1765 48.5379C97.0064 48.4603 96.6944 48.4215 96.1873 47.9559L94.1981 46.0935C93.691 45.6279 93.8471 45.5115 94.9002 45.6667L99.9707 46.2875C101.024 46.4039 101.375 46.5591 102.038 46.9859L104.612 48.6931Z" fill="white"/>
<path d="M91.2744 47.5296C91.7035 48.034 91.5084 47.9952 90.3383 47.8788L84.7607 47.4132C83.5906 47.2968 83.3176 47.2968 83.0445 46.7536L82.0304 44.6197C81.7964 44.0765 81.9914 43.9601 83.0055 44.1153L87.9591 44.7749C89.0122 44.8913 89.2852 45.0853 89.6752 45.5896L91.3134 47.5296H91.2744Z" fill="white"/>
<path d="M78.2042 46.288C78.3602 46.87 78.1652 46.8312 77.0341 46.7148L71.5345 46.2104C70.4033 46.094 70.0913 46.094 70.0913 45.4732L70.1303 43.0676C70.1303 42.4469 70.4033 42.3305 71.3784 42.4857L76.176 43.184C77.1901 43.3392 77.3851 43.4944 77.5411 44.0764L78.1652 46.288H78.2042Z" fill="white"/>
<path d="M65.3725 44.9693C65.2555 45.5901 65.0995 45.5513 63.9684 45.4737L58.5858 44.9305C57.4547 44.8141 57.1816 44.8141 57.4547 44.1157L58.5858 41.3998C58.8588 40.7014 59.2099 40.5462 60.146 40.7402L64.7875 41.4774C65.7626 41.6326 65.8796 41.8266 65.7626 42.4861L65.3335 45.0081L65.3725 44.9693Z" fill="white"/>
<path d="M52.8508 43.5716C52.4608 44.3088 52.2657 44.2312 51.1736 44.1148L45.908 43.5328C44.8159 43.4164 44.5039 43.4164 45.0889 42.6404L47.3902 39.6141C47.9753 38.8381 48.3653 38.6829 49.3014 38.8381L53.8259 39.6529C54.762 39.8081 54.801 40.0409 54.411 40.7392L52.8508 43.5716Z" fill="white"/>
<path d="M13.0302 53.3108C11.8211 54.242 11.6261 54.242 10.1439 54.2032L2.9281 54.1644C1.44594 54.1644 0.977888 54.2032 2.42105 53.1556L7.99866 49.1981C9.36381 48.1893 10.1049 47.9565 11.392 47.9953L17.5937 48.3057C18.8809 48.3833 18.7638 48.6549 17.6327 49.5861L12.9912 53.272L13.0302 53.3108Z" fill="white"/>
<path d="M29.9181 53.5041C29.099 54.3577 28.865 54.3189 27.3828 54.3189L20.167 54.2801C18.6849 54.2801 18.2168 54.3189 19.309 53.3877L23.4044 49.857C24.4185 48.9646 25.0426 48.7318 26.3297 48.8094L32.5704 49.1198C33.8575 49.1974 33.8575 49.4302 33.0775 50.245L29.9181 53.5429V53.5041Z" fill="white"/>
<path d="M148.606 54.7851C149.855 55.0567 149.581 55.0567 148.06 55.0179L140.845 54.9791C139.362 54.9791 138.972 54.9791 137.88 54.6687L133.59 53.4272C132.537 53.1168 132.576 53.0392 133.98 53.078L140.571 53.272C141.937 53.3108 142.522 53.3884 143.731 53.66L148.567 54.7463L148.606 54.7851Z" fill="white"/>
<path d="M131.6 54.63C132.614 54.9404 132.341 54.9404 130.859 54.9404L123.643 54.9016C122.161 54.9016 121.771 54.9016 120.913 54.5136L117.597 53.0393C116.778 52.6513 116.895 52.5737 118.26 52.6125L124.813 52.8453C126.178 52.8841 126.685 53.0005 127.661 53.3496L131.6 54.6688V54.63Z" fill="white"/>
<path d="M114.597 54.4747C115.377 54.8627 115.104 54.8627 113.583 54.8627L106.367 54.8239C104.885 54.8239 104.495 54.8239 103.91 54.3971L101.609 52.6124C101.024 52.1468 101.258 52.0304 102.584 52.108L109.098 52.3408C110.463 52.3796 110.892 52.496 111.594 52.9228L114.558 54.5135L114.597 54.4747Z" fill="white"/>
<path d="M97.6282 54.2802C98.1353 54.7457 97.8623 54.7457 96.3801 54.7069L89.1643 54.6681C87.6822 54.6681 87.2921 54.6681 86.9801 54.1638L85.8099 52.1074C85.5369 51.5642 85.8099 51.4478 87.1361 51.4866L93.6108 51.7194C94.9369 51.7582 95.288 51.9134 95.756 52.379L97.6282 54.2414V54.2802Z" fill="white"/>
<path d="M80.6613 54.0862C80.8563 54.6294 80.6223 54.6294 79.1011 54.5906L71.8853 54.5518C70.4032 54.5518 69.9741 54.5518 70.0131 53.9698L70.0521 51.5642C70.0521 50.9434 70.4032 50.7883 71.7293 50.8658L78.126 51.1374C79.4522 51.1762 79.7252 51.3702 79.9202 51.9134L80.6613 54.125V54.0862Z" fill="white"/>
<path d="M63.7337 53.8924C63.6167 54.5519 63.3826 54.5131 61.8615 54.5131L54.6457 54.4743C53.1635 54.4743 52.7345 54.4743 53.0855 53.776L54.3726 51.0212C54.6847 50.3228 55.1527 50.1288 56.4399 50.2064L62.7976 50.478C64.1237 50.5556 64.3187 50.7108 64.1627 51.3704L63.6947 53.8924H63.7337Z" fill="white"/>
<path d="M46.8052 53.6985C46.3372 54.4356 46.1031 54.3968 44.621 54.3968L37.4052 54.358C35.923 54.358 35.494 54.358 36.157 53.5821L38.8093 50.4393C39.4724 49.6633 39.9795 49.4305 41.3056 49.5081L47.6243 49.8185C48.9504 49.8961 49.0285 50.0901 48.5994 50.8273L46.8052 53.7373V53.6985Z" fill="white"/>
<path d="M52.7347 16.9949C52.0327 17.7709 51.9937 17.6933 51.6036 17.3829L49.7704 15.8309C49.4194 15.5205 49.2634 15.4429 50.1215 14.6281L53.2808 11.4078C54.0609 10.593 54.3339 10.4766 54.6069 10.8258L55.8941 12.4942C56.1671 12.8434 56.0501 13.115 55.387 13.8909L52.7347 16.9949Z" fill="white"/>
<path d="M57.3367 20.6033C56.8296 21.3405 56.7906 21.2629 56.3616 20.9525L54.3333 19.4781C53.9043 19.1677 53.7873 19.1289 54.4114 18.3529L56.7906 15.3266C57.3757 14.5506 57.6097 14.4342 57.9217 14.7834L59.4429 16.3742C59.7549 16.6846 59.7159 16.9562 59.2479 17.6934L57.3757 20.5645L57.3367 20.6033Z" fill="white"/>
<path d="M105.002 40.8952C105.86 41.2832 105.704 41.2444 104.924 41.0504L101.257 40.0804C100.516 39.8864 100.321 39.8476 99.6192 39.4208L96.8499 37.7137C96.1478 37.2869 96.1478 37.2093 96.8109 37.4421L100.048 38.5285C100.711 38.7613 101.062 38.9165 101.842 39.3044L105.041 40.8952H105.002Z" fill="white"/>
<path d="M96.5358 38.4887C97.1989 38.9155 97.0429 38.8767 96.3408 38.6827L92.9084 37.6351C92.2064 37.4023 92.0503 37.3635 91.5043 36.898L89.3981 35.0356C88.891 34.57 88.891 34.4924 89.5151 34.7252L92.4794 35.8892C93.1035 36.122 93.3765 36.2772 94.0006 36.7428L96.5358 38.4887Z" fill="white"/>
<path d="M88.6183 35.9678C89.0863 36.4722 88.9693 36.3946 88.3063 36.1618L85.1079 35.0366C84.4448 34.8038 84.2888 34.765 83.9378 34.2606L82.5336 32.2042C82.1826 31.6999 82.2606 31.5835 82.8066 31.8551L85.5369 33.0578C86.122 33.2906 86.356 33.4846 86.7851 33.989L88.6183 35.929V35.9678Z" fill="white"/>
<path d="M81.2476 33.2514C81.5596 33.7945 81.4426 33.717 80.8186 33.4842L77.8543 32.3202C77.2302 32.0874 77.1132 32.0098 76.9181 31.4666L76.2551 29.255C76.0991 28.6731 76.1771 28.5955 76.6841 28.8671L79.1804 30.1474C79.7265 30.419 79.8825 30.613 80.1555 31.1562L81.2866 33.2514H81.2476Z" fill="white"/>
<path d="M74.4232 30.3413C74.5402 30.9233 74.4232 30.8457 73.8381 30.6129L71.1078 29.3714C70.5618 29.0998 70.4058 29.061 70.4058 28.4402L70.4838 26.0346C70.4838 25.4138 70.6398 25.3362 71.0688 25.6078L73.3311 26.9658C73.7991 27.2374 73.9162 27.4702 74.0332 28.0522L74.4232 30.3413Z" fill="white"/>
<path d="M68.1818 27.2767C68.1038 27.8975 68.0258 27.8587 67.4797 27.5871L64.9834 26.2679C64.4764 25.9963 64.3204 25.9575 64.5544 25.2591L65.3735 22.6596C65.5685 22 65.7245 21.8836 66.1536 22.194L68.1818 23.6296C68.6108 23.94 68.6498 24.134 68.5718 24.7935L68.2208 27.2767H68.1818Z" fill="white"/>
<path d="M62.4459 24.0177C62.1729 24.7161 62.0949 24.6385 61.5878 24.3281L59.3256 22.9314C58.8575 22.621 58.7405 22.5822 59.1305 21.8838L60.7297 19.0902C61.1198 18.3918 61.3148 18.2754 61.6658 18.5858L63.421 20.099C63.8111 20.4094 63.7721 20.6422 63.538 21.3406L62.4459 24.0177Z" fill="white"/>
</svg>
