<svg width="268" height="76" viewBox="0 0 268 76" fill="none" xmlns="http://www.w3.org/2000/svg">
<path fill-rule="evenodd" clip-rule="evenodd" d="M76.0692 37.9237C76.0692 58.8747 59.023 75.8308 38.0346 75.8308C17.0137 75.8308 0 58.8747 0 37.9237C0 16.9718 17.0137 0 38.0346 0C59.023 0 76.0692 16.9718 76.0692 37.9237ZM36.5036 54.5498V21.2806H39.5591V51.5583H47.105V54.5498H36.5036ZM25.8881 30.3584C28.4102 30.3584 30.4433 28.3123 30.4433 25.8137C30.4433 23.3132 28.4102 21.2593 25.8881 21.2593C23.3659 21.2593 21.3328 23.3132 21.3328 25.8137C21.3328 28.3143 23.3659 30.3584 25.8881 30.3584ZM38.0439 6.14499C38.405 6.14499 39.1608 6.16953 39.5584 6.18917V9.14527C39.1854 9.12564 38.3766 9.12564 38.0439 9.12564H38.0439C30.3228 9.12564 23.0829 12.121 17.6341 17.5502C12.1676 22.9843 9.1553 30.2386 9.1553 37.9071C9.1553 45.6199 12.1676 52.8369 17.6341 58.2543C23.0829 63.6943 30.3228 66.6896 38.0439 66.6896C53.2971 66.6896 65.8244 54.8377 66.8262 39.8736C66.8399 39.7931 66.8399 39.4829 66.8399 39.4191H47.1348V36.4954H68.5847H69.8729V37.9081C69.8729 46.4102 66.5457 54.3792 60.533 60.372C54.5213 66.3509 46.5315 69.6546 38.0439 69.6546C29.5237 69.6546 21.532 66.3509 15.5095 60.372C9.51154 54.3792 6.20012 46.4102 6.20012 37.9081C6.20012 20.4042 20.4879 6.14499 38.0439 6.14499Z" fill="white"/>
<path d="M109.171 56.5112H131.078V64.7996H98.853V14.7252H109.171V56.5112Z" fill="white"/>
<path d="M175.098 58.4716C173.241 60.6956 170.616 62.4266 167.222 63.6647C163.829 64.8799 160.069 65.4875 155.942 65.4875C151.609 65.4875 147.803 64.5474 144.524 62.6674C141.268 60.7643 138.746 58.013 136.958 54.4133C135.192 50.8137 134.287 46.5835 134.241 41.7228V38.318C134.241 33.3197 135.078 28.9978 136.751 25.3523C138.448 21.6838 140.878 18.8866 144.042 16.9607C147.229 15.0118 150.955 14.0374 155.22 14.0374C161.158 14.0374 165.801 15.4589 169.148 18.3019C172.496 21.1221 174.479 25.2376 175.098 30.6486H165.056C164.597 27.7826 163.577 25.6847 161.995 24.3549C160.436 23.0251 158.281 22.3602 155.529 22.3602C152.021 22.3602 149.35 23.6785 147.516 26.3152C145.682 28.9519 144.753 32.8726 144.73 38.0772V41.2757C144.73 46.5261 145.728 50.4927 147.722 53.1752C149.717 55.8578 152.64 57.1991 156.492 57.1991C160.367 57.1991 163.13 56.3737 164.781 54.7229V46.0905H155.392V38.4899H175.098V58.4716Z" fill="white"/>
<path d="M229.726 14.7252V47.7069C229.726 53.1867 228.007 57.52 224.567 60.707C221.151 63.894 216.474 65.4875 210.536 65.4875C204.689 65.4875 200.046 63.9398 196.607 60.8446C193.168 57.7493 191.414 53.4962 191.345 48.0852V14.7252H201.663V47.7757C201.663 51.0544 202.442 53.4503 204.001 54.9636C205.583 56.4539 207.761 57.199 210.536 57.199C216.336 57.199 219.283 54.1496 219.374 48.0508V14.7252H229.726Z" fill="white"/>
<path d="M256.012 18.0185H267.513V24.7373H256.012V37.842H248.87V24.7373H237.309V18.0185H248.87V5.76129H256.012V18.0185Z" fill="white"/>
</svg>
