<svg width="187" height="35" viewBox="0 0 187 35" fill="none" xmlns="http://www.w3.org/2000/svg">
<path d="M0 32.8897V0H32.5016L29.5691 2.97869H2.93248V25.6291L20.1608 8.19138H5.25402V5.27476H27.3087L0 32.8897Z" fill="#1C84DE"/>
<path d="M34.3344 34.8755H1.8328L4.70418 31.8968H31.3409V9.24637L14.1736 26.622H29.2026V29.6007H7.02573L34.3344 2.04788V34.8755Z" fill="#1C84DE"/>
<path d="M45.9836 26.5925L56.6518 11.0231V10.8986H47.0259V6.6637H63.2735V9.65302L52.8505 25.0356V25.1601H63.4574V29.395H45.9836V26.5925Z" fill="white"/>
<path d="M68.3623 29.6442V6.91284H74.2482L78.9079 15.258C80.2567 17.6246 81.5443 20.4894 82.5866 23.0427H82.7092C82.4026 20.0534 82.28 17.0018 82.28 13.5765V6.91284H86.9397V29.6442H81.6056L76.8233 20.863C75.4744 18.4342 74.0643 15.5071 72.9607 12.8292L72.838 12.8915C72.9607 15.8808 73.022 19.1192 73.022 22.7936V29.6442H68.3623Z" fill="white"/>
<path d="M98.0371 6.6637V29.395H92.9482V6.6637H98.0371Z" fill="white"/>
<path d="M104.107 6.97503C105.64 6.72592 107.847 6.47681 110.913 6.47681C114.039 6.47681 116.247 7.09958 117.718 8.28286C119.128 9.40385 120.109 11.3345 120.109 13.5142C120.109 15.6939 119.374 17.6245 118.025 18.9323C116.308 20.6138 113.733 21.2989 110.729 21.2989C110.054 21.2989 109.441 21.2366 109.012 21.1743V29.2704H103.984V6.97503H104.107ZM109.135 17.3131C109.564 17.4377 110.116 17.4377 110.851 17.4377C113.549 17.4377 115.204 16.0676 115.204 13.701C115.204 11.5836 113.794 10.338 111.28 10.338C110.238 10.338 109.564 10.4626 109.196 10.5248V17.3131H109.135Z" fill="white"/>
<path d="M137.583 19.8043H129.367V25.2224H138.564V29.4573H124.279V6.6637H138.074V10.8986H129.367V15.5694H137.583V19.8043Z" fill="white"/>
<path d="M142.365 27.6513C142.365 26.4057 143.224 25.5338 144.327 25.5338C145.431 25.5338 146.289 26.4057 146.289 27.6513C146.289 28.8345 145.554 29.7687 144.327 29.7687C143.163 29.7687 142.365 28.8345 142.365 27.6513Z" fill="white"/>
<path d="M157.264 9.1548H150.458V6.6637H167.012V9.1548H160.207V29.395H157.264V9.1548Z" fill="white"/>
<path d="M175.78 29.395L168.484 6.6637H171.611L175.106 17.8737C176.087 20.9253 176.884 23.7278 177.497 26.3434H177.558C178.171 23.7278 179.091 20.863 180.133 17.8737L183.934 6.6637H187L179.029 29.395H175.78Z" fill="white"/>
</svg>
