<svg width="34" height="35" viewBox="0 0 34 35" fill="none" xmlns="http://www.w3.org/2000/svg">
<path d="M1.78876 0L5.9097 6.60771V28.366L1.51846 35H27.2573L34 26.25H16.249V0H1.78876ZM7.07656 2.91667H13.2949V29.1667H28.0387L25.7936 32.0833H6.98202L8.86377 29.2381V5.78521L8.64517 5.43521L7.07508 2.91667H7.07656ZM19.203 3.19521V6.17167C25.1141 7.50313 29.5423 12.724 29.5423 18.9583C29.5427 20.4492 29.2839 21.929 28.7772 23.3333H31.876C32.2763 21.9421 32.4964 20.475 32.4964 18.9583C32.4964 11.1096 26.7537 4.57188 19.203 3.19521ZM2.95562 9.76354C0.550161 13.1326 -0.443194 17.2892 0.18322 21.3646C0.563061 23.8087 1.51208 26.1325 2.95562 28.1531V9.76354Z" fill="white"/>
</svg>
