<svg width="98" height="114" viewBox="0 0 98 114" fill="none" xmlns="http://www.w3.org/2000/svg">
<path d="M0.768 99.904H4.48C5.64267 99.904 6.224 100.432 6.224 101.488V104.704C6.224 105.76 5.64267 106.288 4.48 106.288H2.608V110H0.768V99.904ZM4.384 104.448V101.744C4.384 101.573 4.352 101.461 4.288 101.408C4.224 101.344 4.10667 101.312 3.936 101.312H2.608V104.88H3.936C4.10667 104.88 4.224 104.853 4.288 104.8C4.352 104.736 4.384 104.619 4.384 104.448ZM13.6486 108.592H16.3366V110H11.8086V99.904H13.6486V108.592ZM25.6964 110L25.3124 107.904H23.1044L22.7524 110H20.9124L22.9444 99.904H25.4244L27.5524 110H25.6964ZM23.3444 106.512H25.0564L24.1764 101.68L23.3444 106.512ZM36.315 110H34.475V106.8L32.123 99.904H33.995L35.371 105.088L36.667 99.904H38.539L36.315 106.752V110ZM54.5928 99.904H56.4808L54.4808 110H52.0648L50.0648 99.904H51.9688L53.2648 108.064L54.5928 99.904ZM61.8421 99.904H63.6821V110H61.8421V99.904ZM69.7886 99.904H73.6286C74.7913 99.904 75.3726 100.432 75.3726 101.488V108.416C75.3726 109.472 74.7913 110 73.6286 110H69.7886V99.904ZM73.5166 108.224V101.68C73.5166 101.509 73.4846 101.397 73.4206 101.344C73.3566 101.28 73.2393 101.248 73.0686 101.248H71.6286V108.656H73.0686C73.2393 108.656 73.3566 108.629 73.4206 108.576C73.4846 108.512 73.5166 108.395 73.5166 108.224ZM83.1052 108.592H86.1772V110H81.2492V99.904H86.0492V101.312H83.1052V104.112H85.5852V105.536H83.1052V108.592ZM93.3136 99.904H95.2656C96.4283 99.904 97.0096 100.432 97.0096 101.488V108.416C97.0096 109.472 96.4283 110 95.2656 110H93.3136C92.151 110 91.5696 109.472 91.5696 108.416V101.488C91.5696 100.432 92.151 99.904 93.3136 99.904ZM95.1696 108.16V101.744C95.1696 101.573 95.1376 101.461 95.0736 101.408C95.0096 101.344 94.8923 101.312 94.7216 101.312H93.8736C93.6923 101.312 93.5696 101.344 93.5056 101.408C93.4416 101.461 93.4096 101.573 93.4096 101.744V108.16C93.4096 108.331 93.4416 108.448 93.5056 108.512C93.5696 108.565 93.6923 108.592 93.8736 108.592H94.7216C94.8923 108.592 95.0096 108.565 95.0736 108.512C95.1376 108.448 95.1696 108.331 95.1696 108.16Z" fill="#2F6587"/>
<g opacity="0.78">
<circle cx="49.5" cy="32.5" r="31" stroke="#41789B" stroke-width="3"/>
<path d="M58.5 31.634C59.1667 32.0189 59.1667 32.9811 58.5 33.366L45.75 40.7272C45.0833 41.1121 44.25 40.631 44.25 39.8612L44.25 25.1388C44.25 24.369 45.0833 23.8879 45.75 24.2728L58.5 31.634Z" fill="#41789B"/>
</g>
</svg>
