<svg width="238" height="76" viewBox="0 0 238 76" fill="none" xmlns="http://www.w3.org/2000/svg">
<path d="M38.5488 68.91L35.1101 60.0145L68.3484 61.7301L66.8561 75.9674L38.5488 68.91Z" fill="white"/>
<path d="M46.513 1.54253e-05L0 22.0596L7.19353 55.3004H16.6812L15.0424 31.5223L16.4982 31.0691L22.203 55.3004H32.06L31.6948 26.336L33.1513 25.8828L38.137 55.3004H48.573L51.0346 20.3138L52.4897 19.8606L55.0726 55.3004H68.8723L73.7296 6.64858L46.513 1.54253e-05Z" fill="white"/>
<path d="M190.159 72.3649L190.063 69.5916L199.612 69.4783L199.7 66.4559L189.95 66.3341L189.853 63.5264L202.698 63.2245L202.803 59.9087H185.474L184.957 75.9995H203.123L202.995 72.6773L190.159 72.3649ZM103.753 66.4489L103.549 69.4593L108.369 69.6211L108.308 72.6773L98.2201 72.3803L98.6595 63.5531L112.529 63.2308L112.329 59.9087H94.4134L92.8069 75.9995H113.22L112.691 66.2926L103.753 66.4489ZM230.192 67.6937L216.952 65.4468L217.01 63.7051L229.675 63.2308L229.356 59.9087H213.075L212.242 68.2489L225.702 70.5986L225.763 72.1312L211.758 72.6773L211.415 75.9995H231.015L230.192 67.6937Z" fill="white"/>
<path d="M176.167 75.9995L174.56 59.9087H169.948L163.323 67.579L156.696 59.9087H152.084L150.478 75.9995H155.896L156.414 65.5608L163.323 72.6773L170.229 65.5608L170.749 75.9995H176.167Z" fill="white"/>
<path d="M153.396 0.983145H142.552L141.565 50.7446H154.667L153.396 0.983145Z" fill="white"/>
<path d="M186.996 39.9206L175.031 40.3083L174.634 11.0428L187.148 11.4235L186.996 39.9206ZM197.483 1.00525H163.675L162.358 50.7449H199.883L197.483 1.00525Z" fill="white"/>
<path d="M237.913 11.8729L236.705 0.983145H203.395L203.677 10.6837L214.331 11.0538L215.423 50.7446H228.551L224.624 11.4113L237.913 11.8729Z" fill="white"/>
<path d="M109.135 11.1629L119.584 10.8117L120.775 20.7262L108.714 26.4458L109.135 11.1629ZM121.342 50.7446H135.573L126.299 28.4113L133.7 24.3516L128.643 0.983128H92.316L91.1202 11.7673L99.2467 11.495L95.3279 50.7446H108.046L108.39 38.2328L117.554 33.207L121.342 50.7446Z" fill="white"/>
<path d="M128.266 68.7477L129.368 63.4833L134.658 63.2433L135.763 68.526L128.266 68.7477ZM137.329 76H142.815L138.474 59.9085H125.602L121.261 76H126.748L127.597 71.9404L136.503 72.0558L137.329 76Z" fill="white"/>
</svg>
