<svg width="34" height="33" viewBox="0 0 34 33" fill="none" xmlns="http://www.w3.org/2000/svg">
<path d="M4.4192 15.5102H21.7301C23.8461 15.5102 25.548 17.1967 25.548 19.2607V27.7875C25.548 29.8515 23.8461 31.538 21.7301 31.538H4.4192C2.3032 31.538 0.601318 29.8515 0.601318 27.7875V19.2607C0.601318 17.1967 2.3032 15.5102 4.4192 15.5102Z" stroke="#95BBEB"/>
<path d="M27.9918 18.8246L32.7534 16.5184V29.8191L27.9918 27.5128V18.8246Z" stroke="#95BBEB"/>
<path d="M10.4157 8.9767C10.4157 11.6329 8.22613 13.7995 5.50852 13.7995C2.7909 13.7995 0.601318 11.6329 0.601318 8.9767C0.601318 6.32051 2.7909 4.15387 5.50852 4.15387C8.22613 4.15387 10.4157 6.32051 10.4157 8.9767Z" stroke="#95BBEB"/>
<path d="M26.2696 7.20675C26.2696 10.8405 23.275 13.7995 19.5644 13.7995C15.8537 13.7995 12.8591 10.8405 12.8591 7.20675C12.8591 3.57303 15.8537 0.613953 19.5644 0.613953C23.275 0.613953 26.2696 3.57303 26.2696 7.20675Z" stroke="#95BBEB"/>
</svg>
