<svg width="32" height="32" viewBox="0 0 32 32" fill="none" xmlns="http://www.w3.org/2000/svg">
<path d="M15.7762 16.9801C15.7762 16.9116 15.8033 16.8495 15.8449 16.8054C15.8863 16.7615 15.932 16.745 15.9701 16.745C16.0082 16.745 16.0539 16.7615 16.0953 16.8054C16.1369 16.8495 16.1639 16.9116 16.1639 16.9801C16.1639 17.0486 16.1369 17.1107 16.0953 17.1548C16.0539 17.1987 16.0082 17.2152 15.9701 17.2152C15.932 17.2152 15.8863 17.1987 15.8449 17.1548C15.8033 17.1107 15.7762 17.0486 15.7762 16.9801Z" stroke="#95BBEB"/>
<path d="M16.1639 19.0854C16.1639 19.154 16.1369 19.2161 16.0953 19.2602C16.0539 19.304 16.0082 19.3205 15.9701 19.3205C15.932 19.3205 15.8863 19.304 15.8449 19.2602C15.8033 19.2161 15.7762 19.154 15.7762 19.0854C15.7762 19.0169 15.8033 18.9548 15.8449 18.9107C15.8863 18.8669 15.932 18.8503 15.9701 18.8503C16.0082 18.8503 16.0539 18.8669 16.0953 18.9107C16.1369 18.9548 16.1639 19.0169 16.1639 19.0854Z" stroke="#95BBEB"/>
<path d="M16.1639 21.1901C16.1639 21.2586 16.1369 21.3208 16.0953 21.3648C16.0539 21.4087 16.0082 21.4252 15.9701 21.4252C15.932 21.4252 15.8863 21.4087 15.8449 21.3648C15.8033 21.3208 15.7762 21.2586 15.7762 21.1901C15.7762 21.1216 15.8033 21.0595 15.8449 21.0154C15.8792 20.979 15.9166 20.9614 15.9501 20.9565C16.0724 20.9806 16.1639 21.101 16.1639 21.1901Z" stroke="#95BBEB"/>
<path d="M15.8587 14.6504C15.8873 14.6201 15.912 14.6067 15.9682 14.6067C15.9721 14.6067 15.9852 14.6073 16.0132 14.6207C16.0361 14.6316 16.0629 14.6481 16.0957 14.6722C16.1165 14.7015 16.1305 14.7409 16.1305 14.8084C16.1305 14.8321 16.1255 14.8668 16.1127 14.9023C16.0999 14.938 16.0851 14.9586 16.0777 14.9664C16.0491 14.9967 16.0244 15.0101 15.9682 15.0101C15.9569 15.0101 15.9335 15.007 15.907 14.9963C15.881 14.9858 15.8655 14.9735 15.8587 14.9664C15.8285 14.9343 15.8059 14.8939 15.8059 14.8084C15.8059 14.7847 15.8109 14.75 15.8237 14.7144C15.8366 14.6787 15.8514 14.6582 15.8587 14.6504Z" stroke="#95BBEB"/>
<path d="M17.7208 22.1596L17.7352 22.1703L17.7504 22.1799C17.7757 22.196 17.8095 22.2345 17.823 22.306C17.8363 22.3764 17.825 22.4602 17.7792 22.5363L17.7791 22.5363L17.7728 22.5474C17.7293 22.6242 17.6298 22.6448 17.5595 22.5927L17.5451 22.582L17.5299 22.5723C17.5034 22.5555 17.47 22.5158 17.457 22.4484C17.4442 22.3822 17.4572 22.3166 17.4896 22.2675L17.5046 22.2449L17.517 22.2207C17.5455 22.1655 17.5841 22.143 17.6153 22.1355C17.6472 22.1278 17.6841 22.1323 17.7208 22.1596Z" stroke="#95BBEB"/>
<path d="M19.5064 23.4958C19.5064 23.5643 19.4793 23.6264 19.4377 23.6705C19.3963 23.7144 19.3506 23.7309 19.3125 23.7309C19.2744 23.7309 19.2287 23.7144 19.1873 23.6705C19.1457 23.6264 19.1187 23.5643 19.1187 23.4958C19.1187 23.4273 19.1457 23.3651 19.1873 23.3211C19.2225 23.2837 19.2609 23.2662 19.295 23.2618C19.4279 23.2832 19.5064 23.3909 19.5064 23.4958Z" stroke="#95BBEB"/>
<path d="M21.2089 24.6649C21.2089 24.7334 21.1819 24.7956 21.1403 24.8397C21.0988 24.8835 21.0531 24.9 21.015 24.9C20.977 24.9 20.9312 24.8835 20.8898 24.8397C20.8482 24.7956 20.8212 24.7334 20.8212 24.6649C20.8212 24.5964 20.8482 24.5343 20.8898 24.4902C20.9312 24.4464 20.977 24.4298 21.015 24.4298C21.0531 24.4298 21.0988 24.4464 21.1403 24.4902C21.1819 24.5343 21.2089 24.5964 21.2089 24.6649Z" stroke="#95BBEB"/>
<path d="M14.382 22.1723L14.3973 22.2046L14.417 22.2345C14.481 22.3314 14.4645 22.4726 14.3471 22.5597C14.3065 22.5898 14.2735 22.5923 14.2446 22.5859C14.2139 22.5791 14.1682 22.5564 14.1264 22.5001C14.0748 22.3921 14.1046 22.2437 14.2174 22.16C14.2553 22.1319 14.2956 22.1266 14.3277 22.1338C14.3596 22.1408 14.3747 22.1569 14.382 22.1723Z" stroke="#95BBEB"/>
<path d="M12.788 23.4959C12.788 23.5644 12.761 23.6266 12.7194 23.6706C12.6779 23.7145 12.6322 23.731 12.5941 23.731C12.5561 23.731 12.5103 23.7145 12.4689 23.6706C12.4273 23.6266 12.4003 23.5644 12.4003 23.4959C12.4003 23.4274 12.4273 23.3653 12.4689 23.3212C12.5033 23.2848 12.5407 23.2672 12.5741 23.2623C12.6964 23.2864 12.788 23.4068 12.788 23.4959Z" stroke="#95BBEB"/>
<path d="M11.1161 24.6649C11.1161 24.7334 11.0891 24.7955 11.0475 24.8396C11.0061 24.8835 10.9603 24.9 10.9222 24.9C10.8842 24.9 10.8384 24.8835 10.797 24.8396C10.7554 24.7955 10.7284 24.7334 10.7284 24.6649C10.7284 24.5964 10.7554 24.5342 10.797 24.4902C10.8384 24.4463 10.8842 24.4298 10.9222 24.4298C10.9603 24.4298 11.0061 24.4463 11.0475 24.4902C11.0891 24.5342 11.1161 24.5964 11.1161 24.6649Z" stroke="#95BBEB"/>
<path d="M17.1495 6.75781L16.9512 6.90786V7.15651V7.92503V8.20724L17.1928 8.35309C17.903 8.78182 18.5237 9.04997 19.038 9.26541C19.0716 9.27947 19.1045 9.29323 19.1367 9.30672C19.6146 9.50657 19.951 9.64726 20.2186 9.83186C20.4756 10.0092 20.6623 10.2247 20.7948 10.5938C20.9077 10.9082 20.9842 11.3423 21.01 11.9693H16.0635H16.0004H10.9269C10.9519 11.3012 11.0292 10.8454 11.1438 10.5209C11.2761 10.1464 11.4601 9.94006 11.7104 9.77513C11.9633 9.60845 12.276 9.48613 12.7209 9.31213C12.7751 9.29093 12.8313 9.26897 12.8896 9.24606C13.4071 9.04256 14.031 8.78407 14.745 8.35309L14.9866 8.20724V7.92503V7.29017V7.04546L14.7933 6.89533C14.6598 6.79159 14.5607 6.63794 14.4707 6.39436C14.4067 6.22117 14.361 6.04643 14.3072 5.84099C14.2786 5.73186 14.2478 5.61407 14.2107 5.48325L14.199 5.44178L14.2802 5.52783L14.1649 4.10878C14.1549 3.98562 14.1401 3.85805 14.1249 3.72726C14.0828 3.36579 14.0379 2.97962 14.0842 2.59359C14.1137 2.34695 14.1787 2.14804 14.2821 1.99816C14.3791 1.85754 14.5288 1.73193 14.7877 1.65443L15.1443 1.54766V1.25464C15.1716 1.2428 15.2139 1.22818 15.2757 1.21515C15.5073 1.16631 15.8642 1.1707 16.2635 1.25191C16.6582 1.33219 17.0498 1.47862 17.3528 1.67494C17.6598 1.87389 17.8284 2.09135 17.8809 2.2999L17.8855 2.31809L17.8914 2.33588C17.9153 2.40741 17.9354 2.54086 17.9409 2.73449C17.9462 2.91918 17.9375 3.12491 17.9225 3.32184C17.9075 3.51756 17.8869 3.69753 17.8699 3.82885C17.8615 3.8943 17.854 3.94714 17.8487 3.98319L17.8426 4.02403L17.841 4.03394L17.8407 4.03609L17.8406 4.0363L17.8406 4.03639L17.8406 4.03644L17.5473 5.85651L17.6461 5.73665C17.64 5.75658 17.634 5.77623 17.628 5.79563C17.5741 5.97136 17.5264 6.12674 17.4611 6.28738C17.3651 6.52348 17.2661 6.66954 17.1495 6.75781ZM14.1042 5.36496C14.1042 5.36496 14.104 5.3643 14.1039 5.36296L14.1042 5.36496ZM13.8669 4.3101C13.867 4.31014 13.8669 4.31125 13.8665 4.3133C13.8667 4.31108 13.8669 4.31006 13.8669 4.3101Z" stroke="#95BBEB"/>
<path d="M26.6537 25.6665L26.4555 25.8165V26.0652V26.8337V27.1159L26.6971 27.2618C27.4073 27.6905 28.0279 27.9587 28.5423 28.1741C28.5758 28.1882 28.6087 28.2019 28.641 28.2154C29.1189 28.4153 29.4553 28.556 29.7229 28.7406C29.9799 28.9179 30.1665 29.1334 30.2991 29.5025C30.412 29.8169 30.4885 30.251 30.5143 30.878H25.5678H25.5047H20.4312C20.4562 30.2099 20.5334 29.7541 20.6481 29.4296C20.7804 29.0551 20.9644 28.8487 21.2146 28.6838C21.4675 28.5171 21.7803 28.3948 22.2252 28.2208C22.2794 28.1996 22.3356 28.1777 22.3938 28.1547C22.9114 27.9513 23.5353 27.6928 24.2492 27.2618L24.4908 27.1159V26.8337V26.1989V25.9542L24.2976 25.804C24.1641 25.7003 24.0649 25.5466 23.975 25.3031C23.911 25.1299 23.8653 24.9551 23.8115 24.7497C23.7829 24.6406 23.752 24.5228 23.715 24.3919L23.7033 24.3505L23.7845 24.4365L23.6692 23.0175C23.6592 22.8943 23.6444 22.7667 23.6291 22.6359C23.5871 22.2745 23.5422 21.8883 23.5884 21.5023C23.618 21.2556 23.6829 21.0567 23.7864 20.9069C23.8834 20.7662 24.0331 20.6406 24.292 20.5631L24.6485 20.4564V20.1633C24.6759 20.1515 24.7182 20.1369 24.78 20.1238C25.0116 20.075 25.3684 20.0794 25.7677 20.1606C26.1625 20.2409 26.5541 20.3873 26.8571 20.5836C27.1641 20.7826 27.3327 21 27.3852 21.2086L27.3898 21.2268L27.3957 21.2446C27.4195 21.3161 27.4397 21.4495 27.4452 21.6432C27.4504 21.8279 27.4418 22.0336 27.4267 22.2305C27.4118 22.4263 27.3912 22.6062 27.3742 22.7375C27.3658 22.803 27.3583 22.8558 27.353 22.8919L27.3468 22.9327L27.3453 22.9426L27.345 22.9448L27.3449 22.945L27.3449 22.9451L27.3449 22.9451L27.0516 24.7652L27.1504 24.6453C27.1443 24.6653 27.1382 24.6849 27.1323 24.7043C27.0784 24.8801 27.0307 25.0354 26.9654 25.1961C26.8694 25.4322 26.7704 25.5782 26.6537 25.6665ZM23.6085 24.2736C23.6084 24.2736 23.6083 24.273 23.6082 24.2717L23.6085 24.2736ZM23.3712 23.2188C23.3712 23.2188 23.3712 23.2199 23.3708 23.222C23.371 23.2198 23.3712 23.2187 23.3712 23.2188Z" stroke="#95BBEB"/>
<path d="M7.06049 25.6665L6.86221 25.8165V26.0652V26.8337V27.1159L7.10382 27.2618C7.81406 27.6905 8.43466 27.9587 8.949 28.1741C8.98258 28.1882 9.01548 28.2019 9.04774 28.2154C9.52563 28.4153 9.86206 28.556 10.1296 28.7406C10.3867 28.9179 10.5733 29.1334 10.7058 29.5025C10.8187 29.8169 10.8952 30.251 10.921 30.878H5.97451H5.91143H0.837896C0.862915 30.2099 0.940168 29.7541 1.05482 29.4296C1.18714 29.0551 1.37113 28.8487 1.62138 28.6838C1.87427 28.5171 2.18704 28.3948 2.63195 28.2208C2.68616 28.1996 2.74232 28.1777 2.80058 28.1547C3.31814 27.9513 3.94201 27.6928 4.65597 27.2618L4.89758 27.1159V26.8337V26.1989V25.9542L4.70434 25.804C4.57082 25.7003 4.47167 25.5466 4.38171 25.3031C4.31774 25.1299 4.27199 24.9551 4.2182 24.7497C4.18963 24.6406 4.15878 24.5228 4.12174 24.3919L4.11 24.3505L4.19123 24.4365L4.07594 23.0175C4.06593 22.8943 4.05109 22.7667 4.03588 22.6359C3.99383 22.2745 3.94891 21.8883 3.99518 21.5023C4.02474 21.2556 4.08968 21.0567 4.19311 20.9069C4.29015 20.7662 4.43984 20.6406 4.69869 20.5631L5.05527 20.4564V20.1633C5.08263 20.1515 5.12496 20.1369 5.18673 20.1238C5.4183 20.075 5.77518 20.0794 6.17448 20.1606C6.56922 20.2409 6.9608 20.3873 7.26379 20.5836C7.57086 20.7826 7.73946 21 7.79195 21.2086L7.79653 21.2268L7.80246 21.2446C7.82629 21.3161 7.84644 21.4495 7.85193 21.6432C7.85718 21.8279 7.84849 22.0336 7.83347 22.2305C7.81854 22.4263 7.79792 22.6062 7.78095 22.7375C7.77249 22.803 7.76501 22.8558 7.75972 22.8919L7.75358 22.9327L7.75203 22.9426L7.75169 22.9448L7.75166 22.945L7.75165 22.9451L7.75164 22.9451L7.45833 24.7652L7.55714 24.6453C7.551 24.6653 7.54498 24.6849 7.53902 24.7043C7.4851 24.8801 7.43743 25.0354 7.37211 25.1961C7.27611 25.4322 7.17713 25.5782 7.06049 25.6665ZM4.01521 24.2736C4.01518 24.2736 4.01506 24.273 4.01493 24.2717L4.01521 24.2736ZM3.77794 23.2188C3.77799 23.2188 3.77789 23.2199 3.77754 23.222C3.77773 23.2198 3.7779 23.2187 3.77794 23.2188Z" stroke="#95BBEB"/>
</svg>
