<svg width="34" height="34" viewBox="0 0 34 34" fill="none" xmlns="http://www.w3.org/2000/svg">
<path d="M21.7029 13.9074C21.7029 16.6828 19.4529 18.9327 16.6775 18.9327C13.9021 18.9327 11.6522 16.6828 11.6522 13.9074C11.6522 11.132 13.9021 8.88208 16.6775 8.88208C19.4529 8.88208 21.7029 11.132 21.7029 13.9074Z" stroke="#95BBEB"/>
<path d="M30.912 16.6928L30.9337 17.1701H31.4114H32.7532V17.5515H31.4114H30.9342L30.912 18.0282C30.6897 22.8083 28.1339 26.9235 24.3483 29.373L24.3483 29.3729L24.3426 29.3767C22.3512 30.7043 19.9082 31.4841 17.3462 31.5954L16.8679 31.6162V32.095V33.4367H16.4866V32.095V31.6162L16.0083 31.5954C13.4463 31.4841 11.0034 30.7043 9.01198 29.3767L9.012 29.3767L9.00625 29.373C5.22066 26.9235 2.66488 22.8083 2.44255 18.0282L2.42038 17.5515H1.94309H0.601318V17.1701H1.94309H2.42088L2.44257 16.6928C2.77617 9.35383 8.6703 3.4597 16.0093 3.12611L16.4866 3.10441V2.62662V1.28485H16.8679V2.62662V3.10441L17.3452 3.12611C24.6842 3.4597 30.5784 9.35383 30.912 16.6928ZM30.4142 18.08L30.4444 17.5515H29.915H28.5732V17.1701H30.0301H30.5562L30.5295 16.6447C30.1711 9.59704 24.441 3.86696 17.3933 3.5086L16.8679 3.48188V4.00795V5.46484H16.4866V4.00795V3.48233L15.9616 3.50858C8.79542 3.86689 3.18327 9.60011 2.82506 16.6447L2.79835 17.1701H3.32442H5.01152V17.5515H3.55464H3.04015L3.05484 18.0657C3.17474 22.2622 5.33279 25.9681 8.55212 28.3528L9.34974 28.9436V27.951V25.3034C9.34974 22.8169 11.313 20.8537 13.7995 20.8537H19.6701C22.1567 20.8537 24.1199 22.8169 24.1199 25.3034V27.951V28.9664L24.9248 28.3473C28.0242 25.9631 30.1751 22.2643 30.4142 18.08Z" stroke="#95BBEB"/>
</svg>
