<svg width="37" height="30" viewBox="0 0 37 30" fill="none" xmlns="http://www.w3.org/2000/svg">
<mask id="path-1-inside-1" fill="white">
<path d="M1.44126 28.882C1.57706 28.7831 2.21238 28.6041 2.26088 28.524C2.38212 28.3215 3.44908 27.86 3.64307 27.7516C4.49663 27.2665 5.3405 26.7579 6.21346 26.3105C7.71689 25.5381 7.72659 25.0059 8.93904 24.3089C9.29792 24.177 9.62771 23.9698 9.96235 23.7861C10.1466 23.6825 10.3164 23.5647 10.5492 23.6354C10.5831 23.6448 10.6316 23.6354 10.6607 23.6166C10.8693 23.4658 11.0923 23.4517 11.3494 23.48C11.4706 23.4941 11.6258 23.3764 11.7422 23.2822C11.8926 23.1644 12.0138 23.0137 12.1448 22.8724C12.3096 22.6935 12.5036 22.5898 12.7655 22.6417C12.9159 22.6699 13.0662 22.684 13.2166 22.6982C13.2457 22.7029 13.2942 22.7029 13.3087 22.684C13.4736 22.458 13.7015 22.2413 13.7694 21.987C13.8567 21.6715 13.8179 21.3182 13.8228 20.9839C13.8228 20.9179 13.8131 20.8331 13.7743 20.7908C13.2796 20.2633 13.0808 19.6133 12.9547 18.9399C12.848 18.37 12.7801 17.7954 12.7122 17.2208C12.6734 16.8959 12.6685 16.8817 12.329 16.9524C12.0381 17.0136 11.7131 16.8111 11.6452 16.4908C11.5628 16.1094 11.5385 15.7185 11.4464 15.337C11.3397 14.9131 11.1748 14.5034 11.0487 14.0842C10.976 13.8393 10.9323 13.5803 10.879 13.3307C10.8159 13.0151 10.7383 12.7043 10.6995 12.384C10.685 12.2474 10.7529 12.1014 10.782 11.9601C10.8062 11.8518 11.0245 11.7765 10.8305 11.621C10.7868 11.5834 10.8547 11.4279 10.8547 11.3243C10.8499 11.1736 10.8256 11.0229 10.8111 10.8722C10.8062 10.844 10.8062 10.811 10.8159 10.778C10.8838 10.519 10.8256 10.2882 10.7189 10.0433C10.6413 9.87376 10.6365 9.67124 10.6268 9.47815C10.6122 9.19086 10.6753 8.88944 10.6025 8.62099C10.5589 8.46557 10.6074 8.35254 10.6122 8.22538C10.6171 7.97577 10.6122 7.73086 10.6122 7.4577C10.5637 7.49538 10.5298 7.52835 10.4667 7.57545C10.5783 7.1139 10.6801 6.68061 10.782 6.25203C10.7917 6.21435 10.8111 6.15784 10.7917 6.139C10.5395 5.90351 10.7529 5.69629 10.8402 5.48906C11.0002 5.11229 11.1554 4.73552 11.3639 4.38229C11.5046 4.14681 11.7325 3.96313 11.9168 3.74649C12.1205 3.51101 12.3145 3.2661 12.5182 3.03062C12.6006 2.93172 12.7364 2.86107 12.7849 2.75275C12.9886 2.29591 13.3184 1.93798 13.6482 1.65069C13.7306 1.70721 13.7937 1.74488 13.8616 1.78727C14.075 1.51882 14.3563 1.46701 14.6715 1.49056C14.7636 1.49527 14.8655 1.43405 14.9528 1.39166C15.1322 1.29747 15.3068 1.19385 15.4814 1.09024C15.496 1.10908 15.5105 1.12321 15.5251 1.14205C15.5057 1.1703 15.4863 1.20327 15.4572 1.24566C15.5881 1.27392 15.719 1.30218 15.8112 1.32572C15.9324 1.26921 16.044 1.22211 16.1507 1.1703C16.1846 1.15147 16.2137 1.1185 16.2428 1.09024C16.2768 1.06198 16.335 1.00076 16.3447 1.00547C16.5726 1.16089 16.6114 0.878306 16.7375 0.850048C17.0091 0.793532 17.1255 0.576887 17.2952 0.421469C17.3971 0.327275 17.4795 0.214243 17.5765 0.101212C17.5862 0.115341 17.6056 0.162437 17.6299 0.209534C17.7172 0.185985 17.8045 0.157727 17.8966 0.134179C17.9063 0.181276 17.916 0.233082 17.95 0.379082C17.8713 0.0409235 18.3234 0.153018 18.5465 0.143599C18.5562 0.167147 18.5756 0.233082 18.6095 0.341404C18.7065 0.289598 18.7987 0.242501 18.8957 0.195405C18.8957 0.233082 18.8908 0.280179 18.8908 0.331985C19.0994 0.303727 19.2982 0.280179 19.5649 0.242501C19.4631 0.331985 19.4146 0.374372 19.3661 0.412049C19.3709 0.421469 19.3709 0.435598 19.3758 0.445017C19.4825 0.416759 19.5892 0.388501 19.6813 0.364953C19.7007 0.39792 19.7298 0.440307 19.7735 0.506242C19.7589 0.54392 19.7298 0.623984 19.6813 0.751145C19.8559 0.708758 19.9723 0.67579 20.1081 0.642823C20.1081 0.746435 20.1081 0.859467 20.1081 0.996047C20.1857 0.981918 20.2682 0.972499 20.3506 0.95837C20.4185 0.944241 20.4912 0.911273 20.5543 0.920693C20.8792 0.972499 20.9132 0.95837 21.0878 0.661661C21.0684 0.774693 21.0441 0.883015 21.0199 1.02431C21.1169 1.02431 21.2527 1.02431 21.4564 1.02431C21.3254 1.06669 21.2624 1.08553 21.1508 1.12321C21.4224 1.25979 21.5436 1.02902 21.7667 0.981918C21.694 1.05727 21.6503 1.09966 21.5873 1.1656C21.6552 1.17501 21.7134 1.18443 21.7861 1.19385C21.7425 1.25508 21.7037 1.30689 21.6503 1.38224C21.8831 1.5094 22.1062 1.63185 22.3487 1.76372C22.3778 1.73075 22.4215 1.68837 22.4845 1.62243C22.4894 1.83908 22.567 1.91914 22.7706 1.83908C22.824 1.81553 22.9113 1.86733 23.0374 1.9003C23.1198 1.79669 23.2411 1.64127 23.3575 1.49056C23.3623 1.49527 23.3672 1.49998 23.372 1.50469C23.3138 1.63185 23.2605 1.7543 23.2023 1.88146C23.2217 1.89559 23.2411 1.90972 23.2605 1.92385C23.5224 1.77785 23.7891 1.63185 24.0801 1.47172C24.0022 1.65845 23.714 1.88146 23.7503 1.98979C23.8425 1.9474 23.8958 1.92385 23.9394 1.9003C23.9976 2.06043 24.0607 2.21585 24.1237 2.37598C24.1431 2.37127 24.1868 2.36656 24.2401 2.36185C24.2547 2.7763 24.6669 2.52669 24.8561 2.73391C24.696 2.79043 24.5505 2.84223 24.4099 2.89404C24.4147 2.90817 24.4196 2.92701 24.4244 2.94114C24.7736 2.94114 25.1228 2.94114 25.4817 2.94114C25.3847 3.04946 25.2731 3.1201 25.2537 3.20959C25.2343 3.28965 25.3168 3.39327 25.3653 3.51101C25.3119 3.48275 25.2731 3.4592 25.2392 3.44036C25.2295 3.44978 25.2198 3.46391 25.2101 3.47333C25.2634 3.53456 25.3168 3.60049 25.3701 3.66172C25.3604 3.67114 25.3507 3.68526 25.3459 3.69468C25.3119 3.67584 25.2731 3.6523 25.2343 3.62875C25.1179 3.91133 25.3798 4.02436 25.5205 4.21275C25.6466 4.10442 25.7678 3.9961 25.8842 3.88778C25.8988 3.8972 25.9133 3.90662 25.9279 3.91604C25.826 4.03849 25.729 4.16565 25.6223 4.29281C25.7436 4.80145 25.86 5.31481 25.9812 5.83287C26.0249 5.80461 26.0685 5.77635 26.1219 5.74339C26.1898 5.9459 25.8697 6.17668 26.1752 6.30384C26.1607 6.47338 26.1413 6.61938 26.1413 6.76538C26.1267 7.25519 26.0152 7.73557 26.1219 8.24422C26.1898 8.5786 26.0346 8.95538 25.9812 9.31331C25.957 9.45931 25.9327 9.61002 25.923 9.75602C25.9085 9.91615 25.9133 10.0763 25.8988 10.2364C25.8891 10.373 25.957 10.5378 25.7436 10.6226C25.7048 10.6367 25.729 10.8534 25.7581 10.9711C25.7678 11.0088 25.8745 11.0418 25.9376 11.0512C26.1219 11.0747 26.277 11.362 26.2431 11.621C26.1267 12.4735 26.0152 13.3259 25.9036 14.1784C25.8551 14.541 25.8115 14.9084 25.7775 15.271C25.7678 15.3699 25.8018 15.4735 25.826 15.5677C25.923 15.9681 25.6951 16.2883 25.2731 16.3213C25.1034 16.3354 25.0985 16.4296 25.0985 16.5426C25.0937 16.9995 25.084 17.4516 25.0791 17.9084C25.0694 18.9446 24.8027 19.9053 24.1965 20.7672C24.1383 20.852 24.0946 20.9744 24.1043 21.0686C24.1577 21.5443 24.2207 22.0153 24.308 22.4862C24.3614 22.7688 24.4972 22.9949 24.8658 22.9902C24.9531 22.9902 25.0549 23.0938 25.1228 23.1738C25.3313 23.414 25.5302 23.6495 25.9133 23.48C25.9861 23.447 26.1025 23.4564 26.1704 23.4941C26.6359 23.7484 27.184 23.6825 27.6689 23.8756C28.0763 24.0357 28.4789 24.1864 28.7941 24.4926C29.2063 24.8929 29.7059 25.1142 30.249 25.2838C31.0444 25.5287 31.767 25.929 32.4993 26.3105C33.2753 26.7155 33.6099 27.0499 34.4344 27.356C34.9339 27.5444 35.3413 27.9824 35.7244 28.2885C35.9281 28.5287 36.481 28.8066 36.481 28.8066V29.5601C36.481 29.5601 12.7073 29.5696 0.873837 29.5696C0.859287 29.1834 1.22302 29.1692 1.44126 28.882Z"/>
</mask>
<path d="M1.44126 28.882C1.57706 28.7831 2.21238 28.6041 2.26088 28.524C2.38212 28.3215 3.44908 27.86 3.64307 27.7516C4.49663 27.2665 5.3405 26.7579 6.21346 26.3105C7.71689 25.5381 7.72659 25.0059 8.93904 24.3089C9.29792 24.177 9.62771 23.9698 9.96235 23.7861C10.1466 23.6825 10.3164 23.5647 10.5492 23.6354C10.5831 23.6448 10.6316 23.6354 10.6607 23.6166C10.8693 23.4658 11.0923 23.4517 11.3494 23.48C11.4706 23.4941 11.6258 23.3764 11.7422 23.2822C11.8926 23.1644 12.0138 23.0137 12.1448 22.8724C12.3096 22.6935 12.5036 22.5898 12.7655 22.6417C12.9159 22.6699 13.0662 22.684 13.2166 22.6982C13.2457 22.7029 13.2942 22.7029 13.3087 22.684C13.4736 22.458 13.7015 22.2413 13.7694 21.987C13.8567 21.6715 13.8179 21.3182 13.8228 20.9839C13.8228 20.9179 13.8131 20.8331 13.7743 20.7908C13.2796 20.2633 13.0808 19.6133 12.9547 18.9399C12.848 18.37 12.7801 17.7954 12.7122 17.2208C12.6734 16.8959 12.6685 16.8817 12.329 16.9524C12.0381 17.0136 11.7131 16.8111 11.6452 16.4908C11.5628 16.1094 11.5385 15.7185 11.4464 15.337C11.3397 14.9131 11.1748 14.5034 11.0487 14.0842C10.976 13.8393 10.9323 13.5803 10.879 13.3307C10.8159 13.0151 10.7383 12.7043 10.6995 12.384C10.685 12.2474 10.7529 12.1014 10.782 11.9601C10.8062 11.8518 11.0245 11.7765 10.8305 11.621C10.7868 11.5834 10.8547 11.4279 10.8547 11.3243C10.8499 11.1736 10.8256 11.0229 10.8111 10.8722C10.8062 10.844 10.8062 10.811 10.8159 10.778C10.8838 10.519 10.8256 10.2882 10.7189 10.0433C10.6413 9.87376 10.6365 9.67124 10.6268 9.47815C10.6122 9.19086 10.6753 8.88944 10.6025 8.62099C10.5589 8.46557 10.6074 8.35254 10.6122 8.22538C10.6171 7.97577 10.6122 7.73086 10.6122 7.4577C10.5637 7.49538 10.5298 7.52835 10.4667 7.57545C10.5783 7.1139 10.6801 6.68061 10.782 6.25203C10.7917 6.21435 10.8111 6.15784 10.7917 6.139C10.5395 5.90351 10.7529 5.69629 10.8402 5.48906C11.0002 5.11229 11.1554 4.73552 11.3639 4.38229C11.5046 4.14681 11.7325 3.96313 11.9168 3.74649C12.1205 3.51101 12.3145 3.2661 12.5182 3.03062C12.6006 2.93172 12.7364 2.86107 12.7849 2.75275C12.9886 2.29591 13.3184 1.93798 13.6482 1.65069C13.7306 1.70721 13.7937 1.74488 13.8616 1.78727C14.075 1.51882 14.3563 1.46701 14.6715 1.49056C14.7636 1.49527 14.8655 1.43405 14.9528 1.39166C15.1322 1.29747 15.3068 1.19385 15.4814 1.09024C15.496 1.10908 15.5105 1.12321 15.5251 1.14205C15.5057 1.1703 15.4863 1.20327 15.4572 1.24566C15.5881 1.27392 15.719 1.30218 15.8112 1.32572C15.9324 1.26921 16.044 1.22211 16.1507 1.1703C16.1846 1.15147 16.2137 1.1185 16.2428 1.09024C16.2768 1.06198 16.335 1.00076 16.3447 1.00547C16.5726 1.16089 16.6114 0.878306 16.7375 0.850048C17.0091 0.793532 17.1255 0.576887 17.2952 0.421469C17.3971 0.327275 17.4795 0.214243 17.5765 0.101212C17.5862 0.115341 17.6056 0.162437 17.6299 0.209534C17.7172 0.185985 17.8045 0.157727 17.8966 0.134179C17.9063 0.181276 17.916 0.233082 17.95 0.379082C17.8713 0.0409235 18.3234 0.153018 18.5465 0.143599C18.5562 0.167147 18.5756 0.233082 18.6095 0.341404C18.7065 0.289598 18.7987 0.242501 18.8957 0.195405C18.8957 0.233082 18.8908 0.280179 18.8908 0.331985C19.0994 0.303727 19.2982 0.280179 19.5649 0.242501C19.4631 0.331985 19.4146 0.374372 19.3661 0.412049C19.3709 0.421469 19.3709 0.435598 19.3758 0.445017C19.4825 0.416759 19.5892 0.388501 19.6813 0.364953C19.7007 0.39792 19.7298 0.440307 19.7735 0.506242C19.7589 0.54392 19.7298 0.623984 19.6813 0.751145C19.8559 0.708758 19.9723 0.67579 20.1081 0.642823C20.1081 0.746435 20.1081 0.859467 20.1081 0.996047C20.1857 0.981918 20.2682 0.972499 20.3506 0.95837C20.4185 0.944241 20.4912 0.911273 20.5543 0.920693C20.8792 0.972499 20.9132 0.95837 21.0878 0.661661C21.0684 0.774693 21.0441 0.883015 21.0199 1.02431C21.1169 1.02431 21.2527 1.02431 21.4564 1.02431C21.3254 1.06669 21.2624 1.08553 21.1508 1.12321C21.4224 1.25979 21.5436 1.02902 21.7667 0.981918C21.694 1.05727 21.6503 1.09966 21.5873 1.1656C21.6552 1.17501 21.7134 1.18443 21.7861 1.19385C21.7425 1.25508 21.7037 1.30689 21.6503 1.38224C21.8831 1.5094 22.1062 1.63185 22.3487 1.76372C22.3778 1.73075 22.4215 1.68837 22.4845 1.62243C22.4894 1.83908 22.567 1.91914 22.7706 1.83908C22.824 1.81553 22.9113 1.86733 23.0374 1.9003C23.1198 1.79669 23.2411 1.64127 23.3575 1.49056C23.3623 1.49527 23.3672 1.49998 23.372 1.50469C23.3138 1.63185 23.2605 1.7543 23.2023 1.88146C23.2217 1.89559 23.2411 1.90972 23.2605 1.92385C23.5224 1.77785 23.7891 1.63185 24.0801 1.47172C24.0022 1.65845 23.714 1.88146 23.7503 1.98979C23.8425 1.9474 23.8958 1.92385 23.9394 1.9003C23.9976 2.06043 24.0607 2.21585 24.1237 2.37598C24.1431 2.37127 24.1868 2.36656 24.2401 2.36185C24.2547 2.7763 24.6669 2.52669 24.8561 2.73391C24.696 2.79043 24.5505 2.84223 24.4099 2.89404C24.4147 2.90817 24.4196 2.92701 24.4244 2.94114C24.7736 2.94114 25.1228 2.94114 25.4817 2.94114C25.3847 3.04946 25.2731 3.1201 25.2537 3.20959C25.2343 3.28965 25.3168 3.39327 25.3653 3.51101C25.3119 3.48275 25.2731 3.4592 25.2392 3.44036C25.2295 3.44978 25.2198 3.46391 25.2101 3.47333C25.2634 3.53456 25.3168 3.60049 25.3701 3.66172C25.3604 3.67114 25.3507 3.68526 25.3459 3.69468C25.3119 3.67584 25.2731 3.6523 25.2343 3.62875C25.1179 3.91133 25.3798 4.02436 25.5205 4.21275C25.6466 4.10442 25.7678 3.9961 25.8842 3.88778C25.8988 3.8972 25.9133 3.90662 25.9279 3.91604C25.826 4.03849 25.729 4.16565 25.6223 4.29281C25.7436 4.80145 25.86 5.31481 25.9812 5.83287C26.0249 5.80461 26.0685 5.77635 26.1219 5.74339C26.1898 5.9459 25.8697 6.17668 26.1752 6.30384C26.1607 6.47338 26.1413 6.61938 26.1413 6.76538C26.1267 7.25519 26.0152 7.73557 26.1219 8.24422C26.1898 8.5786 26.0346 8.95538 25.9812 9.31331C25.957 9.45931 25.9327 9.61002 25.923 9.75602C25.9085 9.91615 25.9133 10.0763 25.8988 10.2364C25.8891 10.373 25.957 10.5378 25.7436 10.6226C25.7048 10.6367 25.729 10.8534 25.7581 10.9711C25.7678 11.0088 25.8745 11.0418 25.9376 11.0512C26.1219 11.0747 26.277 11.362 26.2431 11.621C26.1267 12.4735 26.0152 13.3259 25.9036 14.1784C25.8551 14.541 25.8115 14.9084 25.7775 15.271C25.7678 15.3699 25.8018 15.4735 25.826 15.5677C25.923 15.9681 25.6951 16.2883 25.2731 16.3213C25.1034 16.3354 25.0985 16.4296 25.0985 16.5426C25.0937 16.9995 25.084 17.4516 25.0791 17.9084C25.0694 18.9446 24.8027 19.9053 24.1965 20.7672C24.1383 20.852 24.0946 20.9744 24.1043 21.0686C24.1577 21.5443 24.2207 22.0153 24.308 22.4862C24.3614 22.7688 24.4972 22.9949 24.8658 22.9902C24.9531 22.9902 25.0549 23.0938 25.1228 23.1738C25.3313 23.414 25.5302 23.6495 25.9133 23.48C25.9861 23.447 26.1025 23.4564 26.1704 23.4941C26.6359 23.7484 27.184 23.6825 27.6689 23.8756C28.0763 24.0357 28.4789 24.1864 28.7941 24.4926C29.2063 24.8929 29.7059 25.1142 30.249 25.2838C31.0444 25.5287 31.767 25.929 32.4993 26.3105C33.2753 26.7155 33.6099 27.0499 34.4344 27.356C34.9339 27.5444 35.3413 27.9824 35.7244 28.2885C35.9281 28.5287 36.481 28.8066 36.481 28.8066V29.5601C36.481 29.5601 12.7073 29.5696 0.873837 29.5696C0.859287 29.1834 1.22302 29.1692 1.44126 28.882Z" stroke="white" stroke-width="2" mask="url(#path-1-inside-1)"/>
</svg>
