<svg width="168" height="48" viewBox="0 0 168 48" fill="none" xmlns="http://www.w3.org/2000/svg">
<path fill-rule="evenodd" clip-rule="evenodd" d="M47.772 24.1471C47.772 37.3044 37.0669 47.953 23.886 47.953C10.6847 47.953 0 37.3044 0 24.1471C0 10.9891 10.6847 0.330688 23.886 0.330688C37.0669 0.330688 47.772 10.9891 47.772 24.1471ZM22.9246 34.5882V13.6949H24.8435V32.7096H29.5824V34.5882H22.9246ZM16.2578 19.3959C17.8418 19.3959 19.1186 18.111 19.1186 16.5419C19.1186 14.9715 17.8418 13.6816 16.2578 13.6816C14.6739 13.6816 13.3971 14.9715 13.3971 16.5419C13.3971 18.1122 14.6739 19.3959 16.2578 19.3959ZM23.8917 4.18974C24.1186 4.18974 24.5932 4.20515 24.8429 4.21748V6.07394C24.6086 6.06161 24.1007 6.06161 23.8918 6.06161H23.8917C19.0429 6.06161 14.4962 7.94272 11.0743 11.3523C7.64124 14.7649 5.74952 19.3207 5.74952 24.1366C5.74952 28.9803 7.64124 33.5126 11.0743 36.9147C14.4962 40.3311 19.0429 42.2122 23.8917 42.2122C33.4709 42.2122 41.3381 34.7691 41.9672 25.3716C41.9759 25.321 41.9759 25.1262 41.9759 25.0861H29.6009V23.25H43.0716H43.8806V24.1372C43.8806 29.4766 41.7911 34.4812 38.0151 38.2447C34.2397 41.9995 29.2221 44.0742 23.8917 44.0742C18.541 44.0742 13.5222 41.9995 9.73999 38.2447C5.97324 34.4812 3.89364 29.4766 3.89364 24.1372C3.89364 13.1446 12.8665 4.18974 23.8917 4.18974Z" fill="white"/>
<path d="M68.5599 35.8202H82.318V41.0254H62.0804V9.57825H68.5599V35.8202Z" fill="white"/>
<path d="M109.963 37.0513C108.797 38.448 107.148 39.5351 105.017 40.3126C102.886 41.0758 100.525 41.4574 97.9327 41.4574C95.2113 41.4574 92.8211 40.867 90.7621 39.6863C88.7175 38.4912 87.1336 36.7633 86.0105 34.5027C84.9018 32.2421 84.333 29.5855 84.3042 26.5329V24.3947C84.3042 21.2557 84.8298 18.5416 85.8809 16.2521C86.9464 13.9483 88.4727 12.1917 90.4597 10.9822C92.4612 9.75825 94.801 9.1463 97.4792 9.1463C101.208 9.1463 104.124 10.039 106.226 11.8245C108.329 13.5956 109.574 16.1801 109.963 19.5783H103.656C103.368 17.7784 102.728 16.4609 101.734 15.6258C100.755 14.7907 99.4014 14.3731 97.6735 14.3731C95.4705 14.3731 93.7931 15.201 92.6411 16.8569C91.4892 18.5128 90.9061 20.975 90.8917 24.2435V26.2522C90.8917 29.5495 91.518 32.0405 92.7707 33.7252C94.0234 35.4098 95.8593 36.2522 98.2783 36.2522C100.712 36.2522 102.447 35.7338 103.483 34.6971V29.2759H97.5872V24.5027H109.963V37.0513Z" fill="white"/>
<path d="M144.27 9.57825V30.291C144.27 33.7323 143.19 36.4537 141.03 38.4552C138.885 40.4566 135.947 41.4573 132.218 41.4573C128.546 41.4573 125.63 40.4854 123.471 38.5416C121.311 36.5977 120.209 33.9267 120.166 30.5286V9.57825H126.646V30.3342C126.646 32.3932 127.135 33.8979 128.114 34.8483C129.108 35.7842 130.476 36.2521 132.218 36.2521C135.861 36.2521 137.711 34.3371 137.769 30.507V9.57825H144.27Z" fill="white"/>
<path d="M160.778 11.6465H168V15.8659H160.778V24.0957H156.292V15.8659H149.032V11.6465H156.292V3.94885H160.778V11.6465Z" fill="white"/>
</svg>
