<svg width="155" height="50" viewBox="0 0 155 50" fill="none" xmlns="http://www.w3.org/2000/svg">
<path d="M24.9737 45.4067L22.746 39.6438L44.2792 40.7553L43.3124 49.9788L24.9737 45.4067Z" fill="white"/>
<path d="M30.1334 0.763838L0.000244141 15.055L4.66053 36.5898H10.807L9.74538 21.1854L10.6885 20.8918L14.3843 36.5898H20.7701L20.5336 17.8255L21.4771 17.5319L24.7071 36.5898H31.4679L33.0627 13.924L34.0054 13.6304L35.6787 36.5898H44.6187L47.7655 5.07107L30.1334 0.763838Z" fill="white"/>
<path d="M123.194 47.6452L123.131 45.8486L129.318 45.7752L129.375 43.8171L123.058 43.7382L122.995 41.9193L131.317 41.7237L131.385 39.5755H120.159L119.824 49.9999H131.592L131.51 47.8476L123.194 47.6452ZM67.2162 43.8126L67.0841 45.7628L70.2064 45.8677L70.1669 47.8476L63.6317 47.6552L63.9164 41.9366L72.9018 41.7278L72.772 39.5755H61.1655L60.1248 49.9999H73.3491L73.0063 43.7114L67.2162 43.8126ZM149.129 44.619L140.552 43.1634L140.589 42.035L148.794 41.7278L148.587 39.5755H138.04L137.5 44.9787L146.22 46.5009L146.259 47.4939L137.187 47.8476L136.964 49.9999H149.662L149.129 44.619Z" fill="white"/>
<path d="M114.129 49.9999L113.088 39.5755H110.1L105.808 44.5447L101.515 39.5755H98.5271L97.4863 49.9999H100.996L101.332 43.2372L105.808 47.8476L110.282 43.2372L110.619 49.9999H114.129Z" fill="white"/>
<path d="M99.3772 1.40086H92.352L91.7126 33.6385H100.2L99.3772 1.40086Z" fill="white"/>
<path d="M121.145 26.6263L113.394 26.8775L113.137 7.91796L121.244 8.1646L121.145 26.6263ZM127.939 1.41517H106.037L105.184 33.6387H129.494L127.939 1.41517Z" fill="white"/>
<path d="M154.13 8.45573L153.348 1.40086H131.768L131.95 7.68528L138.853 7.92508L139.56 33.6385H148.065L145.521 8.15667L154.13 8.45573Z" fill="white"/>
<path d="M70.7024 7.99567L77.472 7.76818L78.2435 14.1912L70.43 17.8967L70.7024 7.99567ZM78.6113 33.6385H87.8306L81.8221 19.17L86.6168 16.5399L83.341 1.40079H59.8067L59.032 8.38728L64.2967 8.21085L61.7579 33.6385H69.9973L70.2202 25.5328L76.1569 22.2768L78.6113 33.6385Z" fill="white"/>
<path d="M83.0953 45.3016L83.8091 41.8911L87.2366 41.7356L87.9527 45.158L83.0953 45.3016ZM88.9666 50H92.5208L89.7086 39.5752H81.3693L78.5576 50H82.1117L82.6621 47.37L88.4317 47.4447L88.9666 50Z" fill="white"/>
</svg>
