<svg width="170" height="49" viewBox="0 0 170 49" fill="none" xmlns="http://www.w3.org/2000/svg">
<path d="M96.9641 29.7267C100.029 29.7267 102.783 29.7104 105.536 29.7594C105.766 29.7594 106.143 30.2004 106.208 30.4944C106.618 32.4707 107.011 33.0097 109.027 33.0587C113.666 33.1404 118.288 33.1077 122.926 33.0097C124.549 32.977 125.303 32.0787 125.336 30.6904C125.368 29.4164 124.795 28.567 123.516 28.3057C122.435 28.077 121.336 27.979 120.238 27.9464C116.01 27.832 111.781 27.8484 107.552 27.636C105.471 27.538 103.389 27.195 101.34 26.754C98.9965 26.264 97.5869 24.6634 97.3903 22.295C97.21 20.041 97.1772 17.7544 97.3575 15.5004C97.5542 12.9524 99.0457 11.172 101.488 10.437C103.274 9.91436 105.143 9.50603 106.995 9.45703C112.666 9.32636 118.337 9.3427 123.992 9.45703C125.729 9.4897 127.499 9.88169 129.187 10.3554C131.629 11.0414 132.957 12.8054 133.252 15.3044C133.4 16.4967 133.432 17.689 133.514 18.963C130.417 18.963 127.499 18.963 124.565 18.963C124.516 18.8977 124.434 18.865 124.418 18.7997C123.926 16.464 123.533 16.0394 121.14 16.0067C117.124 15.9414 113.125 15.9414 109.109 15.9904C107.306 16.0067 106.339 16.807 106.241 18.1137C106.143 19.4204 106.765 20.3514 108.06 20.6127C109.027 20.8087 110.027 20.8904 111.027 20.9067C115.288 20.9884 119.566 20.972 123.828 21.1027C125.614 21.1517 127.417 21.4457 129.187 21.7397C132.203 22.246 133.859 24.1407 134.399 27.097C134.842 29.4654 134.826 31.8337 134.317 34.202C133.777 36.7337 132.301 38.465 129.663 38.8734C127.155 39.2654 124.631 39.6247 122.107 39.6574C116.55 39.739 110.994 39.6574 105.438 39.543C104.127 39.5104 102.815 39.2 101.537 38.8734C99.2751 38.269 97.8328 36.75 97.423 34.4634C97.1444 32.9607 97.1116 31.4254 96.9641 29.7267Z" fill="white"/>
<path d="M92.1121 32.3077C92.1121 34.7087 92.1121 36.9627 92.1121 39.3637C91.7023 39.3637 91.3089 39.3637 90.9156 39.3637C82.8188 39.3637 74.722 39.3637 66.6416 39.3637C62.5113 39.3637 59.2005 36.4237 59.0857 32.3077C58.9382 27.1137 58.9382 21.9033 59.1021 16.693C59.2168 12.871 62.5277 9.80032 66.4122 9.65332C68.8379 9.57166 71.2637 9.62066 73.6894 9.62066C79.2129 9.62066 84.72 9.62066 90.2436 9.62066C90.6697 9.62066 91.1122 9.62066 91.6203 9.62066C91.6203 11.9073 91.6203 14.096 91.6203 16.4153C83.8842 16.4153 76.148 16.4153 68.3134 16.4153C68.3134 18.0977 68.3134 19.6493 68.3134 21.3153C75.6399 21.3153 82.9335 21.3153 90.3419 21.3153C90.3419 23.3733 90.3419 25.3333 90.3419 27.3913C83.0319 27.3913 75.7218 27.3913 68.3134 27.3913C68.3134 29.041 68.3134 30.609 68.3134 32.2913C76.2135 32.3077 84.13 32.3077 92.1121 32.3077Z" fill="white"/>
<path d="M148.659 31.8014C155.609 31.8014 162.328 31.8014 169.13 31.8014C169.13 34.3331 169.13 36.7668 169.13 39.2821C168.885 39.3148 168.639 39.3638 168.409 39.3638C161.493 39.3638 154.576 39.3637 147.659 39.3474C144.234 39.3311 141.742 37.7794 140.3 34.6924C139.989 34.0391 139.743 33.2877 139.743 32.5854C139.71 24.9904 139.71 17.4117 139.71 9.71875C142.627 9.71875 145.594 9.71875 148.675 9.71875C148.659 17.0034 148.659 24.3207 148.659 31.8014Z" fill="white"/>
<path d="M0.130371 24.4837C0.130371 10.9433 11.1282 0 24.7157 0C38.2868 0 49.3011 10.976 49.3011 24.5163C49.3011 38.0403 38.2868 49 24.6993 49C11.1118 49 0.130371 38.0403 0.130371 24.4837ZM24.7485 2.48267C12.587 2.45 2.67086 12.25 2.6053 24.402C2.53974 36.5703 12.4231 46.4847 24.6502 46.5337C36.8117 46.5663 46.7278 36.75 46.7934 24.6143C46.8917 12.4623 36.9756 2.51533 24.7485 2.48267Z" fill="white"/>
<path d="M8.57116 36.8809C6.45682 33.8265 6.44043 33.8265 5.89955 31.7032C5.68648 30.8865 5.63731 31.2785 6.09623 30.6252C12.177 22.1155 18.2906 13.6222 24.4041 5.1452C24.6172 4.8512 25.1089 4.58986 25.4695 4.6062C29.4687 4.7532 33.091 6.04353 36.4673 8.49353C27.2396 17.9179 18.0283 27.2769 8.57116 36.8809Z" fill="white"/>
<path d="M44.7443 24.5658C44.4493 31.5238 41.6958 36.8811 36.2706 40.7521C30.8618 44.5905 24.8958 45.3418 18.3069 43.4471C27.1576 37.1098 35.8117 30.9358 44.7443 24.5658Z" fill="white"/>
<path d="M38.5492 10.5189C38.5492 10.5189 43.2859 14.9452 44.171 21.2662L15.1111 42.4832C15.1111 42.4832 11.997 40.9969 10.0957 38.8409L38.5492 10.5189Z" fill="white"/>
</svg>
