<svg width="151" height="50" viewBox="0 0 151 50" fill="none" xmlns="http://www.w3.org/2000/svg">
<path d="M3.47714 46.9236H8.41162C9.40874 46.9236 10.1502 46.8727 10.6615 46.7964C11.224 46.6947 11.5564 46.4149 11.7098 45.8808C11.8121 45.4994 11.8632 44.9144 11.8632 44.126C11.8632 43.2613 11.8121 42.6255 11.6842 42.244C11.5564 41.7353 11.224 41.4301 10.7382 41.3284C10.3547 41.2266 9.56214 41.2012 8.36048 41.2012H3.47714L3.47714 46.9236ZM0 49.8484L0 38.3019H8.38605C10.2013 38.3019 11.3774 38.3273 11.9143 38.4036C12.937 38.5308 13.704 38.7851 14.1898 39.2175C14.7012 39.6752 15.0591 40.3874 15.2125 41.4047C15.2892 41.8879 15.3403 42.7272 15.3403 43.9225C15.3403 45.4485 15.2636 46.5167 15.1358 47.1016C14.9568 47.9155 14.65 48.5004 14.2154 48.9073C13.9341 49.1617 13.5762 49.3651 13.1671 49.5177C12.758 49.6449 12.1956 49.7466 11.4797 49.8229C10.9172 49.8738 9.89452 49.8992 8.38605 49.8992H0L0 49.8484Z" fill="white"/>
<path d="M20.3006 44.0499H25.2606C26.0021 44.0499 26.4367 44.0245 26.5901 44.0245C27.1015 43.999 27.4083 43.8464 27.5361 43.5667C27.6384 43.3632 27.664 43.058 27.664 42.6002C27.664 42.1933 27.6128 41.9135 27.5361 41.7101C27.4083 41.4303 27.127 41.2777 26.6668 41.2269C26.5134 41.2269 26.0277 41.2014 25.2351 41.2014H20.275V44.0499H20.3006ZM16.7468 49.874L16.7468 38.3275H25.2862C27.306 38.3275 28.5077 38.3529 28.8656 38.3784C29.2747 38.4292 29.6582 38.531 29.9906 38.7344C30.323 38.9379 30.6042 39.1922 30.7832 39.4974C30.9877 39.828 31.09 40.1841 31.1411 40.5402C31.1922 40.9725 31.2178 41.4812 31.2178 42.0661C31.2178 43.0071 31.1411 43.6684 31.0133 44.0499C30.8087 44.6094 30.4252 44.9909 29.8883 45.1944C29.7093 45.2707 29.4281 45.3215 29.0446 45.3978C29.786 45.4487 30.323 45.6776 30.6553 46.0336C30.8087 46.1862 30.911 46.3897 30.9621 46.5932C31.0133 46.7966 31.0644 47.1018 31.09 47.5088V48.7804V49.8486H27.5873V49.2382C27.5873 48.5515 27.5617 48.0683 27.485 47.7631C27.3827 47.3307 27.1526 47.0764 26.7947 47.0001C26.539 46.9492 26.0277 46.9238 25.2606 46.9238H20.275V49.8486H16.7212L16.7468 49.874Z" fill="white"/>
<path d="M44.8191 45.245H35.9217V47.0762H45.3816V49.8484H32.4446V38.3019H45.3049V41.0232H35.9217V42.7018H44.8191V45.245Z" fill="white"/>
<path d="M56.8613 45.3978L54.6114 40.998H53.8955L51.6456 45.3978H56.8357H56.8613ZM59.1112 49.874L58.1141 47.9411H50.4183L49.4212 49.874H45.3816L51.5433 38.3275H57.0402L63.1252 49.874H59.1112Z" fill="white"/>
<path d="M79.8722 49.8484L79.9745 41.2012H79.3864L74.9889 49.8484H72.0742L67.6767 41.2012H67.063L67.1397 49.8484H63.6626V38.3019H70.08L73.5315 45.8046L76.9831 38.3019H83.3749V49.8484H79.8722Z" fill="white"/>
<path d="M100.428 49.8484H96.6952V45.652H88.7182V49.8484H85.011V38.3019H88.7182V42.4474H96.6952V38.3019H100.428V49.8484Z" fill="white"/>
<path d="M112.444 45.3978L110.194 40.998H109.478L107.229 45.3978H112.419H112.444ZM114.694 49.874L113.697 47.9411H106.001L105.004 49.874H100.965L107.126 38.3275H112.623L118.708 49.874H114.694Z" fill="white"/>
<path d="M130.137 45.3977H133.691C133.716 45.9572 133.716 46.3387 133.716 46.5422C133.716 47.3815 133.589 48.0427 133.307 48.5514C133.026 49.0855 132.489 49.4415 131.722 49.645C130.878 49.8739 129.396 50.0011 127.273 50.0011C124.947 50.0011 123.387 49.9756 122.595 49.8993C121.853 49.8485 121.265 49.7467 120.83 49.5941C120.396 49.467 120.038 49.2635 119.757 49.0092C119.373 48.6531 119.143 48.1953 119.041 47.6104C118.939 47 118.862 45.8555 118.862 44.1261C118.862 42.473 118.913 41.3539 118.99 40.7944C119.117 39.9297 119.45 39.3193 120.012 38.9124C120.421 38.6072 121.112 38.4037 122.032 38.2765C122.978 38.1494 124.691 38.0985 127.171 38.0985C128.628 38.0985 129.677 38.1239 130.316 38.2002C131.262 38.302 131.952 38.48 132.387 38.7343C132.924 39.065 133.256 39.5482 133.41 40.184C133.512 40.6418 133.563 41.1504 133.563 41.7608V42.4221H130.009C130.009 42.1423 129.984 41.9389 129.984 41.8371C129.932 41.4811 129.779 41.2776 129.523 41.1759C129.114 41.0487 128.015 40.9724 126.225 40.9724C124.998 40.9724 124.154 40.9978 123.694 41.0741C123.132 41.1504 122.774 41.4556 122.646 41.9897C122.543 42.4221 122.492 43.1342 122.492 44.0752C122.492 45.0671 122.543 45.7538 122.646 46.1353C122.774 46.6185 123.157 46.9237 123.771 47C124.257 47.0509 125.151 47.1017 126.404 47.1017C127.759 47.1017 128.68 47.0763 129.165 47.0254C129.626 46.9746 129.932 46.822 130.06 46.5422C130.163 46.3133 130.214 45.9318 130.239 45.3977H130.137Z" fill="white"/>
<path d="M143.688 43.9991L151 49.8486H145.606L140.415 45.4487H138.472V49.8486H134.918V38.3021H138.472V42.524H140.415L144.992 38.2258H150.412L143.688 43.9991Z" fill="white"/>
<path d="M39.6806 4.17104C39.3227 4.65426 39.3227 4.60339 39.2204 4.34907L38.7602 3.15373C38.658 2.8994 38.6324 2.84853 39.0415 2.36531L40.6011 0.432418C40.8056 0.178091 40.9079 0.0509266 40.9846 6.10352e-05L41.0613 6.10352e-05C41.0868 0.0254938 41.1124 0.0763594 41.1124 0.127225L41.3425 1.37343C41.3936 1.62776 41.3169 1.80579 41.0101 2.28901L39.6806 4.17104Z" fill="white"/>
<path d="M41.0355 6.94376C40.7798 7.40155 40.7798 7.35068 40.6264 7.12179L39.9872 5.97731C39.8594 5.74842 39.8083 5.69755 40.1406 5.21433L41.3167 3.35774C41.598 2.89995 41.7002 2.82365 41.7769 3.07798L42.1604 4.27332C42.2371 4.52764 42.2116 4.68024 41.9815 5.13803L41.0355 6.94376Z" fill="white"/>
<path d="M62.1286 23.5004C62.5888 23.7801 62.5121 23.7547 62.1286 23.6021L60.3644 22.8137C60.0065 22.6357 59.9298 22.6102 59.5207 22.305L58.0123 21.0843C57.6543 20.7791 57.6287 20.7282 57.9355 20.9062L59.444 21.7455C59.7764 21.9235 59.9298 22.0253 60.3644 22.3305L62.103 23.4749L62.1286 23.5004Z" fill="white"/>
<path d="M57.6537 21.3896C58.0117 21.6948 57.935 21.6694 57.6026 21.4914L55.9919 20.6521C55.6595 20.4741 55.5828 20.4486 55.3015 20.118L54.2021 18.8209C53.9209 18.4903 53.9209 18.4394 54.2021 18.6175L55.5572 19.5076C55.8384 19.6856 55.9919 19.8128 56.3242 20.1434L57.6793 21.3896H57.6537Z" fill="white"/>
<path d="M53.589 18.9986C53.8446 19.3293 53.7935 19.3038 53.4867 19.1258L52.0294 18.2357C51.7481 18.0576 51.6714 18.0068 51.4669 17.6507L50.751 16.2519C50.572 15.8958 50.5976 15.845 50.8277 16.0484L52.0294 16.9895C52.285 17.1929 52.3873 17.3201 52.6174 17.6507L53.589 18.9986Z" fill="white"/>
<path d="M50.291 16.8117C50.4444 17.1677 50.3933 17.1423 50.1121 16.9388L48.8337 15.9978C48.578 15.7943 48.5013 15.7689 48.4246 15.3874L48.0923 13.8869C48.0156 13.5054 48.0411 13.4545 48.2457 13.658L49.2684 14.6499C49.4985 14.8533 49.5752 14.9805 49.703 15.362L50.291 16.7862V16.8117Z" fill="white"/>
<path d="M47.4019 14.5224C47.4531 14.9039 47.4019 14.8531 47.1718 14.6496L46.0469 13.6577C45.8168 13.4543 45.7656 13.4034 45.7656 12.9965L45.8168 11.4196C45.8423 11.0127 45.8679 10.9618 46.0469 11.1907L46.9162 12.2335C47.0951 12.4369 47.1463 12.5895 47.1974 12.971L47.4019 14.497V14.5224Z" fill="white"/>
<path d="M44.896 12.1322C44.8449 12.5391 44.8193 12.4882 44.6148 12.2848L43.6432 11.242C43.4642 11.0131 43.3875 10.9877 43.5154 10.5553L43.95 8.87678C44.0523 8.44442 44.129 8.39356 44.2568 8.62245L44.9727 9.71606C45.1261 9.94496 45.1517 10.0976 45.1005 10.5045L44.9216 12.1322H44.896Z" fill="white"/>
<path d="M42.7742 9.5885C42.6208 10.0209 42.5952 9.96999 42.4163 9.74109L41.6237 8.64748C41.4703 8.41859 41.4191 8.36772 41.6237 7.90993L42.4418 6.15507C42.6464 5.72271 42.7231 5.64642 42.8253 5.90074L43.3623 7.04522C43.4901 7.27411 43.4645 7.45214 43.3367 7.8845L42.7742 9.5885Z" fill="white"/>
<path d="M26.8712 18.617C26.3087 19.1765 26.2576 19.1256 25.7974 18.973L23.6498 18.2101C23.2151 18.0575 23.0617 18.032 23.752 17.4471L26.3599 15.1836C26.9991 14.624 27.2803 14.4969 27.6127 14.6749L29.3001 15.5396C29.658 15.7176 29.5558 15.8957 29.0444 16.4298L26.8712 18.5916V18.617Z" fill="white"/>
<path d="M32.036 20.3718C31.627 20.8804 31.5758 20.8296 31.0901 20.677L28.8401 19.9648C28.3799 19.8122 28.2265 19.7868 28.7379 19.2527L30.6554 17.1672C31.1156 16.6331 31.3713 16.5314 31.7292 16.7094L33.5445 17.5487C33.928 17.7268 33.9024 17.8794 33.5189 18.388L32.0105 20.3718H32.036Z" fill="white"/>
<path d="M76.5482 30.2403C77.1874 30.4692 77.0595 30.4438 76.4203 30.3675L73.3267 29.9097C72.6875 29.808 72.5341 29.808 71.9716 29.5536L69.824 28.5363C69.2871 28.282 69.2871 28.2311 69.8751 28.3329L72.662 28.867C73.25 28.9687 73.5057 29.0704 74.1193 29.2993L76.5737 30.2403H76.5482Z" fill="white"/>
<path d="M69.3129 29.0958C69.8243 29.3501 69.6964 29.3247 69.0828 29.223L66.0915 28.7398C65.4779 28.638 65.3245 28.6126 64.8898 28.3328L63.2535 27.1884C62.8444 26.8832 62.87 26.8323 63.4325 26.9595L66.0659 27.5444C66.6284 27.6716 66.8585 27.7479 67.3443 28.0276L69.3129 29.0958Z" fill="white"/>
<path d="M62.3582 27.8747C62.7417 28.1799 62.6138 28.1545 62.0258 28.0273L59.1623 27.4932C58.5742 27.3915 58.4208 27.366 58.1396 27.0354L57.0146 25.7638C56.7334 25.4332 56.8101 25.3823 57.3214 25.5095L59.827 26.1198C60.3639 26.247 60.5429 26.3487 60.9008 26.6539L62.3582 27.8493V27.8747Z" fill="white"/>
<path d="M55.7114 26.5779C55.9415 26.9085 55.8393 26.8831 55.2768 26.7559L52.5411 26.1964C51.9786 26.0692 51.8252 26.0692 51.6974 25.6878L51.1349 24.2635C51.007 23.9075 51.0838 23.8312 51.5695 23.9838L53.9473 24.645C54.4586 24.7722 54.5865 24.8993 54.8166 25.23L55.7114 26.5525V26.5779Z" fill="white"/>
<path d="M49.3451 25.1534C49.4473 25.5349 49.3451 25.484 48.7826 25.3823L46.1747 24.7719C45.6378 24.6447 45.4844 24.6193 45.51 24.2123L45.5356 22.6355C45.5356 22.2286 45.6634 22.1523 46.1236 22.3049L48.348 23.017C48.8082 23.1696 48.9104 23.2968 49.0127 23.6783L49.3451 25.1534Z" fill="white"/>
<path d="M43.2855 23.6526C43.2088 24.0595 43.1321 24.0341 42.6208 23.9069L40.1152 23.2711C39.6038 23.1439 39.4504 23.1185 39.6294 22.6607L40.2686 20.9313C40.422 20.4989 40.5754 20.3972 41.01 20.5752L43.1065 21.3128C43.5412 21.4654 43.5923 21.618 43.5412 22.0249L43.2855 23.6526Z" fill="white"/>
<path d="M37.5323 22.0764C37.3022 22.5342 37.2255 22.5087 36.7398 22.3561L34.362 21.6695C33.8762 21.5169 33.7228 21.5169 34.0552 21.0082L35.3336 19.1007C35.6404 18.6175 35.8449 18.5158 36.2284 18.6938L38.1971 19.4822C38.6062 19.6348 38.6062 19.7874 38.4016 20.2452L37.5323 22.051V22.0764Z" fill="white"/>
<path d="M18.2037 26.5267C17.5134 27.1116 17.4367 27.0862 16.7463 26.9845L13.4226 26.5521C12.7323 26.4504 12.5278 26.4504 13.3459 25.84L16.4907 23.3984C17.2577 22.788 17.6412 22.6609 18.2037 22.7626L20.9649 23.3476C21.553 23.4747 21.4507 23.6528 20.8115 24.2123L18.2037 26.5012V26.5267Z" fill="white"/>
<path d="M26.0532 27.5696C25.593 28.1037 25.4908 28.0782 24.7749 27.9765L21.4 27.5696C20.7097 27.4933 20.4796 27.4679 21.0932 26.9083L23.3942 24.6957C23.9567 24.1362 24.2891 24.009 24.8771 24.1362L27.7407 24.6957C28.3287 24.7974 28.3032 24.9754 27.8685 25.4841L26.0788 27.5442L26.0532 27.5696Z" fill="white"/>
<path d="M86.0847 33.2666C86.8262 33.47 86.6728 33.4446 85.8546 33.3937L81.9684 33.1394C81.1758 33.0885 80.9713 33.0885 80.3321 32.8596L77.8521 31.9441C77.2385 31.7152 77.264 31.6643 77.9799 31.7406L81.5082 32.0712C82.2496 32.1475 82.5564 32.2238 83.2723 32.4273L86.0847 33.2411V33.2666Z" fill="white"/>
<path d="M76.9828 32.6305C77.5708 32.8594 77.4174 32.8594 76.6249 32.8085L72.8153 32.5287C72.0228 32.4779 71.8438 32.4525 71.3324 32.1981L69.4149 31.1299C68.9291 30.8502 69.0058 30.7993 69.6961 30.8756L73.1221 31.2571C73.838 31.3334 74.1193 31.4097 74.6817 31.664L76.9572 32.6305H76.9828Z" fill="white"/>
<path d="M68.0347 31.9183C68.4693 32.1981 68.3415 32.1727 67.5489 32.1218L63.8161 31.8166C63.0491 31.7657 62.8445 31.7403 62.5121 31.4351L61.2082 30.2143C60.8758 29.9091 60.9781 29.8328 61.6684 29.9346L64.9922 30.3415C65.6825 30.4178 65.9126 30.5195 66.3472 30.7993L68.0347 31.9183Z" fill="white"/>
<path d="M59.2904 31.1556C59.5716 31.4862 59.4438 31.4608 58.6768 31.3845L55.0207 31.0793C54.2536 31.003 54.0747 31.003 53.8957 30.6469L53.231 29.2481C53.0776 28.8921 53.2054 28.8158 53.8701 28.9175L57.1172 29.3499C57.8075 29.4262 57.9865 29.5533 58.2421 29.884L59.3159 31.1556H59.2904Z" fill="white"/>
<path d="M50.7255 30.3418C50.8277 30.7232 50.6999 30.6978 49.9584 30.6215L46.3535 30.2909C45.612 30.2146 45.4075 30.2146 45.4075 29.8077L45.433 28.2308C45.433 27.8239 45.612 27.7476 46.2512 27.8493L49.396 28.3071C50.0607 28.4089 50.1885 28.5106 50.2908 28.8921L50.6999 30.3418H50.7255Z" fill="white"/>
<path d="M42.3137 29.4773C42.237 29.8842 42.1347 29.8588 41.3933 29.8079L37.865 29.4519C37.1235 29.3756 36.9446 29.3756 37.1235 28.9178L37.865 27.1375C38.044 26.6797 38.2741 26.578 38.8877 26.7051L41.9302 27.1884C42.5694 27.2901 42.6461 27.4173 42.5694 27.8496L42.2881 29.5027L42.3137 29.4773Z" fill="white"/>
<path d="M34.1063 28.5611C33.8507 29.0443 33.7228 28.9935 33.0069 28.9172L29.5554 28.5357C28.8395 28.4594 28.635 28.4594 29.0185 27.9507L30.5269 25.967C30.9104 25.4583 31.1661 25.3566 31.7797 25.4583L34.7455 25.9924C35.3591 26.0941 35.3847 26.2467 35.129 26.7045L34.1063 28.5611Z" fill="white"/>
<path d="M8.0029 34.9453C7.21031 35.5557 7.08248 35.5557 6.11092 35.5302L1.38099 35.5048C0.409431 35.5048 0.102625 35.5302 1.04861 34.8436L4.70472 32.2494C5.59958 31.5882 6.08535 31.4356 6.92907 31.461L10.9943 31.6645C11.838 31.7153 11.7613 31.8933 11.0198 32.5037L7.97733 34.9199L8.0029 34.9453Z" fill="white"/>
<path d="M19.0732 35.0719C18.5362 35.6314 18.3828 35.606 17.4113 35.606L12.6814 35.5806C11.7098 35.5806 11.403 35.606 12.1189 34.9956L14.8034 32.6812C15.4682 32.0963 15.8773 31.9437 16.721 31.9945L20.8117 32.198C21.6554 32.2489 21.6554 32.4015 21.1441 32.9356L19.0732 35.0973V35.0719Z" fill="white"/>
<path d="M96.874 35.9116C97.6922 36.0897 97.5132 36.0897 96.5161 36.0642L91.7861 36.0388C90.8146 36.0388 90.5589 36.0388 89.843 35.8353L87.0306 35.0215C86.3403 34.818 86.3659 34.7672 87.2863 34.7926L91.6072 34.9198C92.502 34.9452 92.8855 34.9961 93.6781 35.1741L96.8484 35.8862L96.874 35.9116Z" fill="white"/>
<path d="M85.7267 35.8099C86.3914 36.0134 86.2125 36.0134 85.2409 36.0134L80.511 35.988C79.5394 35.988 79.2837 35.988 78.7213 35.7336L76.548 34.7672C76.0111 34.5129 76.0878 34.462 76.9827 34.4874L81.278 34.64C82.1728 34.6655 82.5052 34.7418 83.1444 34.9707L85.7267 35.8354V35.8099Z" fill="white"/>
<path d="M74.5795 35.7083C75.0909 35.9626 74.9119 35.9626 73.9148 35.9626L69.1848 35.9372C68.2133 35.9372 67.9576 35.9372 67.5741 35.6574L66.0656 34.4875C65.6821 34.1823 65.8355 34.106 66.7048 34.1569L70.9745 34.3095C71.8694 34.3349 72.1506 34.4112 72.6108 34.691L74.5539 35.7337L74.5795 35.7083Z" fill="white"/>
<path d="M63.458 35.5806C63.7903 35.8858 63.6114 35.8858 62.6398 35.8604L57.9099 35.835C56.9383 35.835 56.6827 35.835 56.4781 35.5043L55.7111 34.1564C55.5321 33.8003 55.7111 33.724 56.5804 33.7495L60.8245 33.9021C61.6938 33.9275 61.9239 34.0292 62.2307 34.3344L63.458 35.5552V35.5806Z" fill="white"/>
<path d="M52.3359 35.4535C52.4638 35.8096 52.3103 35.8096 51.3132 35.7841L46.5833 35.7587C45.6117 35.7587 45.3305 35.7587 45.3561 35.3772L45.3816 33.8004C45.3816 33.3935 45.6117 33.2917 46.481 33.3426L50.674 33.5206C51.5433 33.5461 51.7223 33.6732 51.8501 34.0293L52.3359 35.4789V35.4535Z" fill="white"/>
<path d="M41.2401 35.3263C41.1634 35.7587 41.01 35.7332 40.0129 35.7332L35.283 35.7078C34.3114 35.7078 34.0302 35.7078 34.2603 35.25L35.104 33.4443C35.3086 32.9865 35.6154 32.8593 36.4591 32.9102L40.6265 33.0882C41.4958 33.1391 41.6237 33.2408 41.5214 33.6732L41.2146 35.3263H41.2401Z" fill="white"/>
<path d="M30.1436 35.1994C29.8368 35.6826 29.6834 35.6572 28.7118 35.6572L23.9819 35.6317C23.0103 35.6317 22.7291 35.6317 23.1637 35.1231L24.9023 33.063C25.3369 32.5543 25.6693 32.4018 26.5386 32.4526L30.6805 32.6561C31.5498 32.7069 31.6009 32.8341 31.3197 33.3173L30.1436 35.2248V35.1994Z" fill="white"/>
<path d="M34.0296 11.1402C33.5694 11.6489 33.5438 11.598 33.2881 11.3945L32.0865 10.3772C31.8564 10.1738 31.7541 10.1229 32.3166 9.58881L34.3875 7.47789C34.8989 6.9438 35.0778 6.8675 35.2568 7.09639L36.1005 8.19C36.2795 8.4189 36.2028 8.59693 35.7682 9.10558L34.0296 11.1402Z" fill="white"/>
<path d="M37.0468 13.5056C36.7144 13.9888 36.6889 13.9379 36.4076 13.7345L35.0781 12.768C34.7969 12.5646 34.7202 12.5391 35.1293 12.0305L36.6889 10.0467C37.0724 9.53806 37.2258 9.46177 37.4303 9.69066L38.4274 10.7334C38.632 10.9369 38.6064 11.1149 38.2996 11.5981L37.0724 13.4801L37.0468 13.5056Z" fill="white"/>
<path d="M68.2904 26.8069C68.8528 27.0612 68.7506 27.0358 68.2392 26.9086L65.8359 26.2728C65.3501 26.1456 65.2223 26.1202 64.7621 25.8404L62.9468 24.7214C62.4866 24.4416 62.4866 24.3907 62.9212 24.5433L65.0433 25.2555C65.478 25.4081 65.7081 25.5098 66.2194 25.7641L68.3159 26.8069H68.2904Z" fill="white"/>
<path d="M62.7415 25.2294C63.1761 25.5092 63.0739 25.4838 62.6137 25.3566L60.3638 24.6699C59.9035 24.5173 59.8013 24.4919 59.4433 24.1867L58.0627 22.9659C57.7303 22.6607 57.7303 22.6099 58.1394 22.7625L60.0825 23.5254C60.4916 23.678 60.6706 23.7798 61.0796 24.085L62.7415 25.2294Z" fill="white"/>
<path d="M57.5518 23.5769C57.8586 23.9075 57.7819 23.8566 57.3473 23.704L55.2508 22.9665C54.8161 22.8139 54.7139 22.7885 54.4837 22.4578L53.5633 21.1099C53.3332 20.7793 53.3844 20.703 53.7423 20.881L55.532 21.6694C55.9155 21.822 56.0689 21.9492 56.3502 22.2798L57.5518 23.5514V23.5769Z" fill="white"/>
<path d="M52.7197 21.7963C52.9242 22.1523 52.8475 22.1015 52.4384 21.9489L50.4953 21.1859C50.0863 21.0333 50.0096 20.9824 49.8817 20.6264L49.4471 19.1767C49.3448 18.7952 49.3959 18.7444 49.7283 18.9224L51.3646 19.7617C51.7226 19.9397 51.8248 20.0669 52.0038 20.4229L52.7452 21.7963H52.7197Z" fill="white"/>
<path d="M48.2452 19.8888C48.3219 20.2703 48.2452 20.2194 47.8617 20.0668L46.072 19.253C45.7141 19.0749 45.6118 19.0495 45.6118 18.6426L45.663 17.0657C45.663 16.6588 45.7652 16.6079 46.0465 16.786L47.5294 17.6761C47.8362 17.8541 47.9129 18.0067 47.9896 18.3882L48.2452 19.8888Z" fill="white"/>
<path d="M44.1548 17.88C44.1036 18.2869 44.0525 18.2615 43.6946 18.0834L42.0583 17.2187C41.7259 17.0407 41.6236 17.0153 41.777 16.5575L42.3139 14.8535C42.4418 14.4211 42.544 14.3448 42.8253 14.5483L44.1548 15.4893C44.436 15.6928 44.4616 15.8199 44.4104 16.2523L44.1803 17.88H44.1548Z" fill="white"/>
<path d="M40.396 15.7436C40.217 16.2014 40.1659 16.1506 39.8335 15.9471L38.3506 15.0315C38.0438 14.8281 37.9671 14.8026 38.2228 14.3448L39.271 12.5137C39.5267 12.0559 39.6545 11.9796 39.8846 12.1831L41.0352 13.1749C41.2908 13.3784 41.2653 13.531 41.1119 13.9888L40.396 15.7436Z" fill="white"/>
</svg>
